<?xml version="1.0" ?><svg xmlns="http://www.w3.org/2000/svg" width="1021" height="789" fill="none"><path fill="#000" d="M0 0h1021v789H0z"/><path stroke="#000" d="m542.5 629.5 9.5-128s51.111-6.829 74.5 11C698 567 546.545 575 546.545 575"/><path stroke="#fff" stroke-width="3" d="M789.5 503h-71.412c-19.826 0-35.396-12.67-35.396-28.028m0 0v-52.216c0-19.581-30.909-25.724-30.909-25.724m30.909 77.94V571.5c0 33 35.396 37 35.396 37H795M651.783 397.032H578m73.783 0H789.5m-137.717 0s31.408-5.76 31.408-24.189V310.26M795 283h-74.918c-8.475 0-36.891 11.135-36.891 27.26m0 0V212c0-17.5 12.531-38.999 32.309-39h74m-532 330h71.412c19.826 0 35.396-12.67 35.396-28.028m0 0v-52.216c0-19.581 30.909-25.724 30.909-25.724m-30.909 77.94V571.5c0 33-35.396 37-35.396 37H252m143.217-211.468H469m-73.783 0s-31.408-5.76-31.408-24.189V310.26M252 283h74.918c8.475 0 36.891 11.135 36.891 27.26m0 0V212c0-17.5-12.531-38.999-32.309-39h-74"/><rect width="81" height="74" x="179" y="243" fill="white" rx="10" stroke="white"/><rect width="81" height="74" x="179" y="465" fill="white" rx="10" stroke="white"/><rect width="81" height="74" x="179" y="578" fill="white" rx="10" stroke="white"/><rect width="81" height="74" x="180" y="136" fill="white" rx="10" stroke="white"/><rect width="81" height="74" x="785" y="249" fill="white" rx="10" stroke="white"/><rect width="81" height="74" x="785" y="141" fill="white" rx="10" stroke="white"/><rect width="81" height="74" x="785" y="357" fill="white" rx="10" stroke="white"/><rect width="81" height="74" x="785" y="465" fill="white" rx="10" stroke="white"/><rect width="81" height="74" x="785" y="573" fill="white" rx="10" stroke="white"/><ellipse cx="511" cy="395" fill="#fff" rx="69" ry="68"/><path fill="#000" d="M525.844 406.474a.689.689 0 0 1-.327-.072.78.78 0 0 1-.268-.24.992.992 0 0 1-.15-.377 1.26 1.26 0 0 1 .017-.462 1.53 1.53 0 0 1 .212-.48 1.78 1.78 0 0 1 .411-.424c.171-.125.391-.232.591-.294.224-.068.494-.102.728-.096.258.007.554.064.798.151.269.095.561.254.79.426.251.187.506.448.693.702.203.275.39.627.509.95.128.349.217.771.244 1.143.03.398-.001.861-.08 1.253a5.16 5.16 0 0 1-.444 1.262c-.206.403-.507.83-.812 1.16-.325.35-.752.697-1.157.943a5.94 5.94 0 0 1-1.44.62 6.224 6.224 0 0 1-1.634.209 6.59 6.59 0 0 1-1.714-.262 7.008 7.008 0 0 1-1.661-.76 7.488 7.488 0 0 1-1.47-1.243 7.972 7.972 0 0 1-1.144-1.672 8.54 8.54 0 0 1-.699-2.006 8.937 8.937 0 0 1-.162-2.214 9.3 9.3 0 0 1 .43-2.266 9.543 9.543 0 0 1 1.036-2.148 9.741 9.741 0 0 1 1.608-1.857 9.94 9.94 0 0 1 2.101-1.406 10.1 10.1 0 0 1 2.47-.815 10.35 10.35 0 0 1 2.677-.125c.878.078 1.874.309 2.701.621.852.322 1.783.828 2.523 1.368a11.81 11.81 0 0 1 2.15 2.06 12.427 12.427 0 0 1 1.594 2.641c.407.928.734 2.059.89 3.063.16 1.033.189 2.245.08 3.285a13.759 13.759 0 0 1-.779 3.279 13.973 13.973 0 0 1-1.629 3.033 14.04 14.04 0 0 1-2.404 2.555 14.111 14.111 0 0 1-3.046 1.868 14.173 14.173 0 0 1-3.498 1.012 14.492 14.492 0 0 1-3.722.04 14.892 14.892 0 0 1-3.686-.979 15.452 15.452 0 0 1-3.386-1.977 16.127 16.127 0 0 1-2.83-2.877 16.818 16.818 0 0 1-2.044-3.611 17.401 17.401 0 0 1-1.081-4.12 14.513 14.513 0 0 0-.953-3.415 13.89 13.89 0 0 0-1.745-2.965 13.276 13.276 0 0 0-2.376-2.332 12.618 12.618 0 0 0-2.811-1.571 12.109 12.109 0 0 0-3.029-.74c-.959-.1-2.075-.066-3.026.096a11.47 11.47 0 0 0-2.812.881c-.826.388-1.718.963-2.416 1.56a11.2 11.2 0 0 0-1.874 2.09 11.03 11.03 0 0 0-1.233 2.443 10.805 10.805 0 0 0-.547 2.603c-.063.817-.014 1.766.135 2.571.144.777.424 1.648.763 2.359a9.49 9.49 0 0 0 1.294 1.995 8.904 8.904 0 0 0 1.696 1.515 8.421 8.421 0 0 0 1.949.963 7.944 7.944 0 0 0 2.042.381 7.558 7.558 0 0 0 1.983-.181 7.329 7.329 0 0 0 1.783-.685 7.07 7.07 0 0 0 1.471-1.097 6.886 6.886 0 0 0 1.078-1.392 6.65 6.65 0 0 0 .641-1.558c.129-.493.203-1.08.197-1.59a5.935 5.935 0 0 0-.217-1.5 5.524 5.524 0 0 0-.572-1.302 5.051 5.051 0 0 0-.843-1.026 4.605 4.605 0 0 0-1.017-.698 4.174 4.174 0 0 0-1.086-.354 3.774 3.774 0 0 0-1.056-.023 3.45 3.45 0 0 0-.939.265 3.11 3.11 0 0 0-.754.49 2.869 2.869 0 0 0-.527.634 2.564 2.564 0 0 0-.282.695c-.048.209-.068.459-.048.672.018.19.072.406.152.578.07.151.18.313.299.428.105.101.247.196.382.246a.921.921 0 0 0 .392.056.767.767 0 0 0 .337-.119.698.698 0 0 0 .224-.255.712.712 0 0 1 .223-.255.77.77 0 0 1 .337-.118.939.939 0 0 1 .393.055c.135.051.277.146.381.247.119.115.23.276.3.428.079.172.134.388.152.578.02.213 0 .463-.048.672-.054.233-.161.49-.283.694a2.82 2.82 0 0 1-.526.635 3.156 3.156 0 0 1-.754.489 3.472 3.472 0 0 1-.939.266 3.774 3.774 0 0 1-1.056-.024 4.135 4.135 0 0 1-1.086-.353 4.576 4.576 0 0 1-1.017-.699 5.045 5.045 0 0 1-.843-1.025 5.484 5.484 0 0 1-.572-1.302 5.981 5.981 0 0 1-.218-1.5 6.355 6.355 0 0 1 .198-1.59c.136-.52.373-1.095.641-1.558a6.892 6.892 0 0 1 1.078-1.393 7.089 7.089 0 0 1 1.471-1.097 7.338 7.338 0 0 1 1.783-.685 7.64 7.64 0 0 1 1.982-.181 7.996 7.996 0 0 1 2.043.382 8.438 8.438 0 0 1 1.949.962 8.944 8.944 0 0 1 1.696 1.516 9.48 9.48 0 0 1 1.294 1.995c.338.711.618 1.581.762 2.359.15.805.198 1.753.136 2.57a10.813 10.813 0 0 1-.547 2.604 10.99 10.99 0 0 1-1.234 2.443 11.164 11.164 0 0 1-1.874 2.09 11.305 11.305 0 0 1-2.415 1.56c-.851.4-1.889.723-2.813.88-.95.162-2.067.197-3.025.097a12.142 12.142 0 0 1-3.029-.74 12.658 12.658 0 0 1-2.811-1.571 13.21 13.21 0 0 1-2.376-2.332 13.914 13.914 0 0 1-1.745-2.965 14.473 14.473 0 0 1-.953-3.416 14.886 14.886 0 0 1-.053-3.641c.134-1.18.466-2.514.896-3.616a15.321 15.321 0 0 1 1.826-3.329 15.436 15.436 0 0 1 2.67-2.788 15.47 15.47 0 0 1 3.36-2.022 15.56 15.56 0 0 1 3.842-1.077 15.871 15.871 0 0 1 4.068-.012c1.312.174 2.793.58 4.016 1.099 1.025.415 2.263.734 3.358.86a13.09 13.09 0 0 0 3.373-.069 12.842 12.842 0 0 0 3.156-.946 12.678 12.678 0 0 0 2.73-1.714 12.62 12.62 0 0 0 2.14-2.322 12.507 12.507 0 0 0 1.431-2.739 12.27 12.27 0 0 0 .663-2.941c.085-.928.047-2.008-.108-2.927a11.517 11.517 0 0 0-.826-2.711 10.984 10.984 0 0 0-1.444-2.319 10.402 10.402 0 0 0-1.923-1.787 9.853 9.853 0 0 0-2.236-1.165 9.369 9.369 0 0 0-2.372-.502 9.02 9.02 0 0 0-2.33.153 8.72 8.72 0 0 0-2.126.75 8.532 8.532 0 0 0-1.786 1.252 8.264 8.264 0 0 0-1.343 1.625 8.106 8.106 0 0 0-.839 1.853 7.814 7.814 0 0 0-.314 1.928 7.47 7.47 0 0 0 .19 1.856c.132.55.366 1.161.636 1.655.257.469.623.968.994 1.349.351.361.809.72 1.243.97.409.237.916.443 1.373.557.431.106.942.161 1.385.142a4.825 4.825 0 0 0 1.287-.237 4.56 4.56 0 0 0 1.097-.554 4.28 4.28 0 0 0 .841-.789c.214-.267.417-.609.548-.927.12-.294.213-.651.246-.968a3.34 3.34 0 0 0-.036-.915 2.936 2.936 0 0 0-.272-.785 2.496 2.496 0 0 0-.445-.599 2.122 2.122 0 0 0-.543-.379 1.733 1.733 0 0 0-.563-.153 1.421 1.421 0 0 0-.511.052 1.156 1.156 0 0 0-.399.216.972.972 0 0 0-.243.321.719.719 0 0 0 .035.685.722.722 0 0 1 .103.326.818.818 0 0 1-.068.359.99.99 0 0 1-.243.322 1.19 1.19 0 0 1-.399.216 1.444 1.444 0 0 1-.511.052 1.76 1.76 0 0 1-.563-.154 2.122 2.122 0 0 1-.543-.379 2.49 2.49 0 0 1-.445-.598 2.896 2.896 0 0 1-.272-.786 3.34 3.34 0 0 1-.036-.915c.033-.316.126-.674.246-.967.131-.318.334-.661.547-.928.23-.287.543-.578.842-.788.321-.226.728-.43 1.097-.555.395-.134.871-.22 1.287-.237a5.17 5.17 0 0 1 1.385.143c.457.113.964.32 1.373.556.434.25.892.61 1.243.971.371.381.737.879.994 1.349a7.04 7.04 0 0 1 .636 1.654 7.43 7.43 0 0 1 .189 1.857 7.774 7.774 0 0 1-.313 1.928 8.126 8.126 0 0 1-.839 1.853 8.322 8.322 0 0 1-1.343 1.625 8.49 8.49 0 0 1-1.786 1.251c-.64.33-1.425.606-2.126.75a8.932 8.932 0 0 1-2.33.153 9.367 9.367 0 0 1-2.372-.501 9.832 9.832 0 0 1-2.236-1.165 10.407 10.407 0 0 1-1.923-1.788 10.977 10.977 0 0 1-1.444-2.318c-.372-.82-.676-1.82-.826-2.711-.155-.919-.193-2-.108-2.928a12.28 12.28 0 0 1 .663-2.941c.339-.926.868-1.936 1.431-2.738.58-.826 1.37-1.682 2.139-2.323.792-.659 1.8-1.29 2.731-1.714a12.842 12.842 0 0 1 3.156-.946 13.09 13.09 0 0 1 3.373-.069c1.095.127 2.333.445 3.358.861a14.039 14.039 0 0 1 3.098 1.773 14.654 14.654 0 0 1 2.603 2.605c.732.955 1.43 2.169 1.895 3.288a15.965 15.965 0 0 1 1.017 3.767c.171 1.261.18 2.736.025 3.999a16.676 16.676 0 0 1-1.012 3.954 16.855 16.855 0 0 1-2.024 3.623 16.864 16.864 0 0 1-2.935 3.021 14.011 14.011 0 0 0-2.405 2.555 13.933 13.933 0 0 0-1.628 3.034 13.705 13.705 0 0 0-.78 3.278c-.108 1.04-.08 2.252.081 3.285.156 1.005.483 2.135.889 3.063.396.902.983 1.878 1.595 2.642a11.84 11.84 0 0 0 2.149 2.06c.741.54 1.671 1.046 2.524 1.368.826.312 1.822.542 2.7.621.85.076 1.838.031 2.678-.125a10.095 10.095 0 0 0 2.469-.816 9.91 9.91 0 0 0 2.101-1.405 9.783 9.783 0 0 0 1.609-1.858 9.586 9.586 0 0 0 1.036-2.148 9.282 9.282 0 0 0 .43-2.266 8.93 8.93 0 0 0-.163-2.213 8.487 8.487 0 0 0-.699-2.007 8.024 8.024 0 0 0-1.144-1.672 7.511 7.511 0 0 0-1.469-1.243 6.983 6.983 0 0 0-1.661-.759 6.56 6.56 0 0 0-1.714-.262 6.177 6.177 0 0 0-1.634.209 5.909 5.909 0 0 0-1.441.62 5.71 5.71 0 0 0-1.156.942c-.305.33-.607.758-.813 1.16a5.165 5.165 0 0 0-.443 1.263 4.83 4.83 0 0 0-.081 1.253c.028.371.117.794.245 1.142.118.323.305.675.508.951.187.253.443.514.693.702.23.172.522.331.79.426.245.086.54.144.799.151.233.006.503-.028.727-.097.2-.061.421-.169.591-.293.151-.111.306-.268.411-.424.093-.138.174-.317.212-.481.033-.143.042-.317.017-.462a1.004 1.004 0 0 0-.149-.377.793.793 0 0 0-.269-.24.676.676 0 0 0-.327-.071Z"/><path fill="#fff" d="M168.75 122h-2.693v-8.727h2.812c.847 0 1.571.174 2.174.524a3.428 3.428 0 0 1 1.385 1.496c.321.647.481 1.423.481 2.326 0 .909-.162 1.692-.486 2.348a3.459 3.459 0 0 1-1.414 1.509c-.62.349-1.373.524-2.259.524Zm-1.636-.938h1.568c.721 0 1.319-.139 1.794-.417a2.58 2.58 0 0 0 1.061-1.189c.233-.514.349-1.126.349-1.837 0-.704-.115-1.311-.345-1.819a2.54 2.54 0 0 0-1.031-1.176c-.457-.276-1.027-.414-1.709-.414h-1.687v6.852Zm10.091 1.074c-.591 0-1.11-.14-1.556-.422a2.863 2.863 0 0 1-1.04-1.18c-.247-.506-.37-1.097-.37-1.773 0-.681.123-1.277.37-1.785.25-.509.597-.904 1.04-1.185.446-.281.965-.422 1.556-.422.59 0 1.108.141 1.551.422.446.281.792.676 1.039 1.185.25.508.375 1.104.375 1.785 0 .676-.125 1.267-.375 1.773a2.82 2.82 0 0 1-1.039 1.18c-.443.282-.961.422-1.551.422Zm0-.903c.448 0 .818-.115 1.107-.345.29-.23.505-.533.644-.908a3.48 3.48 0 0 0 .209-1.219c0-.437-.07-.845-.209-1.223a2.063 2.063 0 0 0-.644-.916c-.289-.233-.659-.349-1.107-.349-.449 0-.819.116-1.108.349-.29.233-.505.539-.644.916a3.518 3.518 0 0 0-.209 1.223c0 .438.07.844.209 1.219.139.375.354.678.644.908.289.23.659.345 1.108.345Zm7.16.903c-.614 0-1.142-.145-1.586-.434a2.828 2.828 0 0 1-1.022-1.198c-.239-.508-.358-1.089-.358-1.743 0-.664.122-1.251.366-1.76.247-.511.591-.91 1.032-1.197.443-.29.96-.435 1.551-.435.46 0 .875.086 1.244.256s.672.409.908.716c.235.307.382.665.439 1.074h-1.006a1.56 1.56 0 0 0-.511-.793c-.262-.233-.614-.349-1.057-.349-.392 0-.736.102-1.032.307a2 2 0 0 0-.686.856c-.162.367-.243.797-.243 1.291 0 .506.08.946.239 1.321.162.375.389.666.682.874.295.207.642.311 1.04.311.261 0 .498-.045.711-.136a1.48 1.48 0 0 0 .542-.392 1.52 1.52 0 0 0 .315-.614h1.006a2.34 2.34 0 0 1-.422 1.044 2.364 2.364 0 0 1-.882.733c-.364.179-.787.268-1.27.268Zm8.169-2.812v-3.869h1.005V122h-1.005v-1.108h-.068a2.154 2.154 0 0 1-.716.848c-.324.23-.733.345-1.228.345-.409 0-.772-.089-1.091-.268a1.885 1.885 0 0 1-.75-.818c-.181-.367-.272-.829-.272-1.385v-4.159h1.005v4.09c0 .478.134.858.401 1.143.27.284.614.426 1.031.426.25 0 .504-.064.763-.192.261-.128.48-.324.656-.588.179-.264.269-.601.269-1.01Zm2.847 2.676v-6.545h.972v1.022h.085c.137-.349.357-.62.661-.814.304-.196.669-.294 1.095-.294.432 0 .791.098 1.078.294.29.194.516.465.678.814h.068c.167-.338.419-.606.754-.805.335-.202.737-.303 1.206-.303.585 0 1.064.184 1.436.55.372.364.558.93.558 1.7V122h-1.005v-4.381c0-.483-.132-.828-.397-1.035a1.462 1.462 0 0 0-.933-.311c-.46 0-.817.139-1.07.417-.252.276-.379.625-.379 1.049V122h-1.023v-4.483c0-.372-.12-.672-.362-.899-.241-.23-.552-.345-.933-.345-.261 0-.506.069-.733.209a1.576 1.576 0 0 0-.545.579 1.704 1.704 0 0 0-.205.848V122h-1.006Zm13.174.136c-.63 0-1.174-.139-1.632-.417a2.808 2.808 0 0 1-1.052-1.176c-.245-.506-.367-1.094-.367-1.765 0-.67.122-1.261.367-1.772a2.888 2.888 0 0 1 1.031-1.202c.443-.29.96-.435 1.551-.435.341 0 .678.057 1.01.171.332.113.635.298.908.554.272.253.49.588.652 1.005.162.418.243.932.243 1.543v.426h-5.046v-.869h4.023c0-.369-.074-.699-.222-.989a1.67 1.67 0 0 0-.622-.686 1.746 1.746 0 0 0-.946-.251c-.4 0-.747.099-1.04.298a1.976 1.976 0 0 0-.669.767 2.254 2.254 0 0 0-.234 1.014v.58c0 .494.085.913.256 1.257.173.341.413.601.72.78a2.11 2.11 0 0 0 1.069.264c.265 0 .503-.037.716-.111a1.54 1.54 0 0 0 .559-.341c.156-.153.277-.344.362-.571l.971.273a2.158 2.158 0 0 1-.515.869 2.52 2.52 0 0 1-.895.58 3.326 3.326 0 0 1-1.198.204Zm5.246-4.074V122h-1.006v-6.545h.972v1.022h.085a1.88 1.88 0 0 1 .699-.801c.313-.204.716-.307 1.21-.307.444 0 .831.091 1.164.273.332.179.591.452.775.818.185.364.277.824.277 1.381V122h-1.005v-4.091c0-.514-.134-.915-.401-1.202-.267-.289-.633-.434-1.099-.434-.321 0-.608.069-.861.209-.25.139-.448.342-.593.609-.144.267-.217.591-.217.971Zm8.861-2.607v.852h-3.392v-.852h3.392Zm-2.404-1.569h1.006v6.239c0 .284.041.497.123.639a.645.645 0 0 0 .324.281c.134.046.274.069.422.069.111 0 .202-.006.273-.017l.17-.035.205.904a2.156 2.156 0 0 1-.75.119c-.284 0-.563-.061-.835-.183a1.659 1.659 0 0 1-.674-.558c-.176-.25-.264-.566-.264-.946v-6.512Zm7.786 8.114h-1.108l3.204-8.727h1.091l3.205 8.727h-1.108l-2.608-7.347h-.068L228.044 122Zm.409-3.409h4.466v.937h-4.466v-.937Zm8.211-.529V122h-1.005v-6.545h.971v1.022h.086c.153-.332.386-.599.698-.801.313-.204.716-.307 1.211-.307.443 0 .831.091 1.163.273.332.179.591.452.776.818.184.364.277.824.277 1.381V122h-1.006v-4.091c0-.514-.134-.915-.401-1.202-.267-.289-.633-.434-1.099-.434-.321 0-.608.069-.861.209-.25.139-.447.342-.592.609-.145.267-.218.591-.218.971Zm7.94 4.091c-.414 0-.791-.078-1.129-.234a1.94 1.94 0 0 1-.805-.686c-.199-.301-.299-.665-.299-1.091 0-.375.074-.679.222-.912.148-.236.345-.42.592-.554.248-.133.52-.233.819-.298.301-.068.603-.122.907-.162.398-.051.72-.09.968-.115.25-.029.431-.075.545-.141.116-.065.175-.179.175-.341v-.034c0-.42-.115-.747-.345-.98-.228-.233-.573-.349-1.036-.349-.48 0-.856.105-1.129.315-.273.21-.465.435-.576.673l-.954-.341c.17-.397.398-.707.682-.929.287-.224.599-.38.937-.468a3.89 3.89 0 0 1 1.006-.137c.21 0 .452.026.724.077.276.048.542.149.797.303.259.153.473.385.644.694.17.31.255.725.255 1.245V122h-1.005v-.886h-.051a1.794 1.794 0 0 1-.341.456 1.973 1.973 0 0 1-.635.413c-.264.114-.587.17-.968.17Zm.154-.903c.398 0 .733-.078 1.005-.234.276-.157.483-.358.623-.605.142-.248.213-.508.213-.78v-.921c-.043.051-.137.098-.282.141-.142.04-.306.075-.494.106a21.302 21.302 0 0 1-.963.128c-.261.034-.506.09-.733.166a1.261 1.261 0 0 0-.545.337c-.137.148-.205.349-.205.605 0 .35.129.614.388.793.261.176.592.264.993.264Zm5.688-7.977V122h-1.006v-8.727h1.006Zm2.489 11.182c-.17 0-.322-.015-.456-.043a1.222 1.222 0 0 1-.277-.077l.256-.886c.244.062.46.085.648.068a.776.776 0 0 0 .498-.251c.148-.148.283-.388.405-.721l.188-.511-2.421-6.579h1.091l1.807 5.215h.068l1.807-5.215h1.091l-2.778 7.5c-.125.338-.28.617-.465.839a1.75 1.75 0 0 1-.643.499 1.989 1.989 0 0 1-.819.162Zm10.669-7.535-.904.256a1.684 1.684 0 0 0-.251-.439 1.226 1.226 0 0 0-.443-.358c-.188-.093-.428-.14-.72-.14-.401 0-.735.092-1.002.277-.264.181-.396.413-.396.694 0 .25.091.448.273.593.181.144.465.265.852.362l.971.238c.586.142 1.022.36 1.309.652.287.29.43.664.43 1.121 0 .375-.108.71-.324 1.006a2.153 2.153 0 0 1-.895.699c-.383.17-.829.255-1.338.255-.667 0-1.22-.145-1.657-.434-.438-.29-.715-.713-.831-1.27l.954-.239c.091.352.263.617.516.793.255.176.589.264 1.001.264.469 0 .841-.099 1.117-.298.278-.202.417-.443.417-.725a.762.762 0 0 0-.238-.571c-.159-.156-.404-.272-.733-.349l-1.091-.256c-.6-.142-1.04-.362-1.321-.66-.279-.302-.418-.678-.418-1.13 0-.369.104-.696.311-.98.21-.284.496-.507.857-.669a3.003 3.003 0 0 1 1.236-.243c.647 0 1.156.142 1.525.426.372.285.636.66.793 1.125Zm1.633 5.08v-6.545h1.006V122h-1.006Zm.511-7.636a.713.713 0 0 1-.507-.201.643.643 0 0 1-.209-.481c0-.188.07-.348.209-.482a.717.717 0 0 1 .507-.2c.196 0 .364.067.503.2a.639.639 0 0 1 .213.482.636.636 0 0 1-.213.481.7.7 0 0 1-.503.201Zm6.973 2.556-.904.256a1.656 1.656 0 0 0-.251-.439 1.226 1.226 0 0 0-.443-.358c-.188-.093-.428-.14-.72-.14-.401 0-.735.092-1.002.277-.264.181-.396.413-.396.694 0 .25.091.448.273.593.182.144.466.265.852.362l.972.238c.585.142 1.021.36 1.308.652.287.29.43.664.43 1.121 0 .375-.108.71-.324 1.006a2.153 2.153 0 0 1-.895.699c-.383.17-.829.255-1.338.255-.667 0-1.22-.145-1.657-.434-.438-.29-.715-.713-.831-1.27l.954-.239c.091.352.263.617.516.793.256.176.589.264 1.001.264.469 0 .841-.099 1.117-.298.278-.202.417-.443.417-.725a.762.762 0 0 0-.238-.571c-.159-.156-.404-.272-.733-.349l-1.091-.256c-.6-.142-1.04-.362-1.321-.66-.279-.302-.418-.678-.418-1.13 0-.369.104-.696.311-.98.211-.284.496-.507.857-.669a3.006 3.006 0 0 1 1.236-.243c.647 0 1.156.142 1.525.426.372.285.637.66.793 1.125ZM143.023 227a3.095 3.095 0 0 0-.371-.771 2.395 2.395 0 0 0-.541-.588 2.267 2.267 0 0 0-.708-.371 2.824 2.824 0 0 0-.869-.128c-.517 0-.987.134-1.41.401-.424.267-.76.66-1.01 1.18-.25.52-.375 1.158-.375 1.913 0 .756.126 1.394.379 1.914s.595.913 1.027 1.18c.432.267.918.401 1.457.401.5 0 .941-.107 1.321-.32.384-.216.682-.52.895-.912.216-.395.324-.859.324-1.393l.324.068h-2.625v-.938h3.324v.938c0 .719-.154 1.344-.46 1.875a3.185 3.185 0 0 1-1.262 1.236c-.534.289-1.148.434-1.841.434-.772 0-1.451-.181-2.037-.545-.582-.364-1.037-.881-1.363-1.551-.324-.671-.486-1.466-.486-2.387 0-.69.092-1.311.277-1.862a4.125 4.125 0 0 1 .793-1.415c.34-.389.744-.687 1.21-.895a3.744 3.744 0 0 1 1.538-.311c.46 0 .889.07 1.287.209a3.467 3.467 0 0 1 1.858 1.483c.21.347.355.732.435 1.155h-1.091Zm5.475 6.136c-.591 0-1.11-.14-1.556-.422a2.863 2.863 0 0 1-1.04-1.18c-.247-.506-.37-1.097-.37-1.773 0-.681.123-1.277.37-1.785.25-.509.597-.904 1.04-1.185.446-.281.965-.422 1.556-.422.59 0 1.107.141 1.551.422.446.281.792.676 1.039 1.185.25.508.375 1.104.375 1.785 0 .676-.125 1.267-.375 1.773a2.82 2.82 0 0 1-1.039 1.18c-.444.282-.961.422-1.551.422Zm0-.903c.448 0 .818-.115 1.107-.345.29-.23.505-.533.644-.908a3.48 3.48 0 0 0 .209-1.219c0-.437-.07-.845-.209-1.223a2.063 2.063 0 0 0-.644-.916c-.289-.233-.659-.349-1.107-.349-.449 0-.819.116-1.108.349-.29.233-.505.539-.644.916a3.518 3.518 0 0 0-.209 1.223c0 .438.07.844.209 1.219.139.375.354.678.644.908.289.23.659.345 1.108.345Zm9.618-5.778-2.42 6.545h-1.023l-2.42-6.545h1.091l1.807 5.215h.068l1.807-5.215h1.09Zm3.838 6.681c-.631 0-1.175-.139-1.632-.417a2.803 2.803 0 0 1-1.053-1.176c-.244-.506-.366-1.094-.366-1.765 0-.67.122-1.261.366-1.772a2.888 2.888 0 0 1 1.031-1.202c.444-.29.961-.435 1.552-.435a3.1 3.1 0 0 1 1.01.171c.332.113.634.298.907.554.273.253.49.588.652 1.005.162.418.243.932.243 1.543v.426h-5.045v-.869h4.022c0-.369-.074-.699-.221-.989a1.677 1.677 0 0 0-.622-.686 1.749 1.749 0 0 0-.946-.251c-.401 0-.748.099-1.04.298a1.96 1.96 0 0 0-.669.767 2.255 2.255 0 0 0-.235 1.014v.58c0 .494.086.913.256 1.257.173.341.413.601.72.78.307.176.664.264 1.07.264.264 0 .503-.037.716-.111.216-.077.402-.19.558-.341.156-.153.277-.344.362-.571l.972.273a2.149 2.149 0 0 1-.516.869c-.241.247-.54.441-.895.58a3.325 3.325 0 0 1-1.197.204Zm4.24-.136v-6.545h.971v.988h.069c.119-.324.335-.586.647-.788a1.906 1.906 0 0 1 1.057-.303 10.862 10.862 0 0 1 .529.017v1.023a3.377 3.377 0 0 0-.235-.038 2.284 2.284 0 0 0-.379-.03c-.318 0-.602.067-.852.2a1.468 1.468 0 0 0-.801 1.334V233h-1.006Zm5.47-3.938V233h-1.005v-6.545h.971v1.022h.086c.153-.332.386-.599.698-.801.313-.204.716-.307 1.211-.307.443 0 .831.091 1.163.273.332.179.591.452.776.818.184.364.277.824.277 1.381V233h-1.006v-4.091c0-.514-.134-.915-.401-1.202-.267-.289-.633-.434-1.099-.434-.321 0-.608.069-.861.209-.25.139-.447.342-.592.609-.145.267-.218.591-.218.971Zm6.014 3.938v-6.545h.972v1.022h.085a1.65 1.65 0 0 1 .661-.814c.304-.196.669-.294 1.095-.294.432 0 .791.098 1.078.294.29.194.516.465.677.814h.069c.167-.338.419-.606.754-.805.335-.202.737-.303 1.206-.303.585 0 1.064.184 1.436.55.372.364.558.93.558 1.7V233h-1.006v-4.381c0-.483-.132-.828-.396-1.035a1.462 1.462 0 0 0-.933-.311c-.46 0-.817.139-1.07.417-.252.276-.379.625-.379 1.049V233h-1.023v-4.483c0-.372-.12-.672-.362-.899-.241-.23-.552-.345-.933-.345-.261 0-.506.069-.733.209a1.586 1.586 0 0 0-.546.579 1.714 1.714 0 0 0-.204.848V233h-1.006Zm13.174.136c-.63 0-1.174-.139-1.632-.417a2.808 2.808 0 0 1-1.052-1.176c-.245-.506-.367-1.094-.367-1.765 0-.67.122-1.261.367-1.772a2.888 2.888 0 0 1 1.031-1.202c.443-.29.96-.435 1.551-.435.341 0 .678.057 1.01.171.332.113.635.298.908.554.272.253.49.588.652 1.005.162.418.242.932.242 1.543v.426h-5.045v-.869h4.023c0-.369-.074-.699-.222-.989a1.67 1.67 0 0 0-.622-.686 1.746 1.746 0 0 0-.946-.251c-.401 0-.747.099-1.04.298a1.96 1.96 0 0 0-.669.767 2.254 2.254 0 0 0-.234 1.014v.58c0 .494.085.913.255 1.257.174.341.414.601.721.78.306.176.663.264 1.069.264.264 0 .503-.037.716-.111.216-.077.402-.19.558-.341a1.55 1.55 0 0 0 .363-.571l.971.273a2.158 2.158 0 0 1-.515.869 2.52 2.52 0 0 1-.895.58 3.33 3.33 0 0 1-1.198.204Zm5.246-4.074V233h-1.006v-6.545h.972v1.022h.085a1.88 1.88 0 0 1 .699-.801c.313-.204.716-.307 1.21-.307.443 0 .831.091 1.164.273.332.179.591.452.775.818.185.364.277.824.277 1.381V233h-1.006v-4.091c0-.514-.133-.915-.4-1.202-.267-.289-.634-.434-1.1-.434-.321 0-.607.069-.86.209-.25.139-.448.342-.593.609-.145.267-.217.591-.217.971Zm8.86-2.607v.852h-3.392v-.852h3.392Zm-2.403-1.569h1.006v6.239c0 .284.041.497.123.639a.641.641 0 0 0 .324.281c.134.046.274.069.422.069.111 0 .202-.006.273-.017l.17-.035.205.904a2.2 2.2 0 0 1-.75.119c-.284 0-.563-.061-.835-.183a1.659 1.659 0 0 1-.674-.558c-.176-.25-.264-.566-.264-.946v-6.512Zm14.45 2.114h-1.056a2.2 2.2 0 0 0-.891-1.381 2.405 2.405 0 0 0-.729-.358 2.926 2.926 0 0 0-.835-.119c-.528 0-1.007.134-1.436.401-.426.267-.766.66-1.019 1.18-.25.52-.375 1.158-.375 1.913 0 .756.125 1.394.375 1.914.253.52.593.913 1.019 1.18.429.267.908.401 1.436.401.29 0 .568-.04.835-.12a2.44 2.44 0 0 0 .729-.353 2.248 2.248 0 0 0 .891-1.385h1.056a3.509 3.509 0 0 1-.434 1.197 3.295 3.295 0 0 1-.784.899 3.435 3.435 0 0 1-1.053.559c-.386.127-.8.191-1.24.191-.744 0-1.406-.181-1.986-.545-.579-.364-1.035-.881-1.368-1.551-.332-.671-.498-1.466-.498-2.387 0-.92.166-1.716.498-2.386.333-.67.789-1.188 1.368-1.551.58-.364 1.242-.546 1.986-.546.44 0 .854.064 1.24.192.389.128.74.316 1.053.563.312.244.573.542.784.895.21.349.355.748.434 1.197Zm4.231 6.136c-.591 0-1.11-.14-1.556-.422a2.861 2.861 0 0 1-1.039-1.18c-.248-.506-.371-1.097-.371-1.773 0-.681.123-1.277.371-1.785.25-.509.596-.904 1.039-1.185.446-.281.965-.422 1.556-.422.591 0 1.108.141 1.551.422.446.281.793.676 1.04 1.185.25.508.375 1.104.375 1.785 0 .676-.125 1.267-.375 1.773a2.822 2.822 0 0 1-1.04 1.18c-.443.282-.96.422-1.551.422Zm0-.903c.449 0 .818-.115 1.108-.345.29-.23.504-.533.643-.908a3.48 3.48 0 0 0 .209-1.219c0-.437-.07-.845-.209-1.223a2.061 2.061 0 0 0-.643-.916c-.29-.233-.659-.349-1.108-.349-.449 0-.818.116-1.108.349-.29.233-.504.539-.644.916a3.518 3.518 0 0 0-.208 1.223c0 .438.069.844.208 1.219.14.375.354.678.644.908.29.23.659.345 1.108.345Zm4.501.767v-6.545h.971v1.022h.086c.136-.349.356-.62.66-.814.304-.196.669-.294 1.095-.294.432 0 .792.098 1.078.294.29.194.516.465.678.814h.068a1.91 1.91 0 0 1 .754-.805c.336-.202.738-.303 1.206-.303.586 0 1.064.184 1.437.55.372.364.558.93.558 1.7V233h-1.006v-4.381c0-.483-.132-.828-.396-1.035a1.464 1.464 0 0 0-.933-.311c-.461 0-.817.139-1.07.417-.253.276-.379.625-.379 1.049V233h-1.023v-4.483c0-.372-.121-.672-.362-.899-.242-.23-.553-.345-.934-.345-.261 0-.505.069-.732.209a1.57 1.57 0 0 0-.546.579 1.714 1.714 0 0 0-.204.848V233h-1.006Zm10.43 0v-6.545h.971v1.022h.085c.137-.349.357-.62.661-.814.304-.196.669-.294 1.095-.294.432 0 .791.098 1.078.294.29.194.516.465.678.814h.068a1.91 1.91 0 0 1 .754-.805c.335-.202.737-.303 1.206-.303.585 0 1.064.184 1.436.55.372.364.558.93.558 1.7V233h-1.005v-4.381c0-.483-.132-.828-.397-1.035a1.462 1.462 0 0 0-.933-.311c-.46 0-.817.139-1.069.417-.253.276-.38.625-.38 1.049V233h-1.022v-4.483c0-.372-.121-.672-.363-.899-.241-.23-.552-.345-.933-.345-.261 0-.505.069-.733.209a1.576 1.576 0 0 0-.545.579 1.704 1.704 0 0 0-.205.848V233h-1.005Zm14.554-2.676v-3.869h1.006V233h-1.006v-1.108h-.068a2.146 2.146 0 0 1-.716.848c-.324.23-.733.345-1.227.345-.409 0-.773-.089-1.091-.268a1.885 1.885 0 0 1-.75-.818c-.182-.367-.273-.829-.273-1.385v-4.159h1.006v4.09c0 .478.133.858.4 1.143.27.284.614.426 1.032.426.25 0 .504-.064.763-.192.261-.128.48-.324.656-.588.179-.264.268-.601.268-1.01Zm3.854-1.262V233h-1.006v-6.545h.971v1.022h.086c.153-.332.386-.599.699-.801.312-.204.715-.307 1.21-.307.443 0 .831.091 1.163.273.333.179.591.452.776.818.184.364.277.824.277 1.381V233h-1.006v-4.091c0-.514-.133-.915-.401-1.202-.267-.289-.633-.434-1.099-.434-.321 0-.608.069-.861.209-.25.139-.447.342-.592.609-.145.267-.217.591-.217.971Zm6.013 3.938v-6.545h1.006V233h-1.006Zm.512-7.636a.713.713 0 0 1-.507-.201.64.64 0 0 1-.209-.481c0-.188.069-.348.209-.482a.717.717 0 0 1 .507-.2c.196 0 .363.067.503.2a.639.639 0 0 1 .213.482.636.636 0 0 1-.213.481.7.7 0 0 1-.503.201Zm4.995 7.772c-.613 0-1.142-.145-1.585-.434a2.837 2.837 0 0 1-1.023-1.198c-.238-.508-.358-1.089-.358-1.743 0-.664.122-1.251.367-1.76.247-.511.591-.91 1.031-1.197.443-.29.96-.435 1.551-.435.46 0 .875.086 1.244.256.37.17.672.409.908.716s.382.665.439 1.074h-1.006a1.553 1.553 0 0 0-.511-.793c-.261-.233-.614-.349-1.057-.349-.392 0-.736.102-1.031.307a1.993 1.993 0 0 0-.686.856c-.162.367-.243.797-.243 1.291 0 .506.079.946.239 1.321.162.375.389.666.681.874.296.207.642.311 1.04.311.262 0 .499-.045.712-.136.213-.091.393-.222.541-.392.148-.171.253-.375.315-.614h1.006a2.329 2.329 0 0 1-1.304 1.777c-.364.179-.787.268-1.27.268Zm5.97.017c-.414 0-.791-.078-1.129-.234a1.94 1.94 0 0 1-.805-.686c-.199-.301-.299-.665-.299-1.091 0-.375.074-.679.222-.912.148-.236.345-.42.592-.554a3.12 3.12 0 0 1 .818-.298c.302-.068.604-.122.908-.162.398-.051.72-.09.967-.115.25-.029.432-.075.546-.141.116-.065.175-.179.175-.341v-.034c0-.42-.115-.747-.346-.98-.227-.233-.572-.349-1.035-.349-.48 0-.857.105-1.129.315-.273.21-.465.435-.576.673l-.954-.341c.17-.397.398-.707.682-.929.287-.224.599-.38.937-.468a3.89 3.89 0 0 1 1.006-.137c.21 0 .452.026.724.077.276.048.542.149.797.303.259.153.473.385.644.694.17.31.255.725.255 1.245V233h-1.005v-.886h-.051a1.794 1.794 0 0 1-.341.456 1.973 1.973 0 0 1-.635.413c-.265.114-.587.17-.968.17Zm.154-.903c.397 0 .733-.078 1.005-.234.276-.157.483-.358.623-.605.142-.248.213-.508.213-.78v-.921c-.043.051-.137.098-.282.141-.142.04-.306.075-.494.106a21.302 21.302 0 0 1-.963.128c-.261.034-.506.09-.733.166a1.261 1.261 0 0 0-.545.337c-.137.148-.205.349-.205.605 0 .35.129.614.388.793.261.176.592.264.993.264Zm7.529-5.795v.852h-3.393v-.852h3.393Zm-2.404-1.569h1.006v6.239c0 .284.041.497.123.639a.645.645 0 0 0 .324.281c.134.046.274.069.422.069.111 0 .202-.006.273-.017l.17-.035.205.904a2.2 2.2 0 0 1-.75.119c-.284 0-.563-.061-.835-.183a1.659 1.659 0 0 1-.674-.558c-.176-.25-.264-.566-.264-.946v-6.512ZM281.26 233v-6.545h1.006V233h-1.006Zm.512-7.636a.713.713 0 0 1-.507-.201.64.64 0 0 1-.209-.481c0-.188.069-.348.209-.482a.717.717 0 0 1 .507-.2c.196 0 .363.067.503.2a.639.639 0 0 1 .213.482.636.636 0 0 1-.213.481.7.7 0 0 1-.503.201Zm4.995 7.772c-.591 0-1.109-.14-1.555-.422a2.856 2.856 0 0 1-1.04-1.18c-.247-.506-.371-1.097-.371-1.773 0-.681.124-1.277.371-1.785.25-.509.596-.904 1.04-1.185.446-.281.964-.422 1.555-.422s1.108.141 1.551.422c.446.281.793.676 1.04 1.185.25.508.375 1.104.375 1.785 0 .676-.125 1.267-.375 1.773a2.822 2.822 0 0 1-1.04 1.18c-.443.282-.96.422-1.551.422Zm0-.903c.449 0 .818-.115 1.108-.345.29-.23.504-.533.643-.908.14-.375.209-.781.209-1.219 0-.437-.069-.845-.209-1.223a2.061 2.061 0 0 0-.643-.916c-.29-.233-.659-.349-1.108-.349-.449 0-.818.116-1.108.349-.29.233-.504.539-.643.916-.14.378-.209.786-.209 1.223 0 .438.069.844.209 1.219.139.375.353.678.643.908.29.23.659.345 1.108.345Zm5.507-3.171V233h-1.006v-6.545h.972v1.022h.085c.153-.332.386-.599.699-.801.312-.204.716-.307 1.21-.307.443 0 .831.091 1.163.273.333.179.591.452.776.818.185.364.277.824.277 1.381V233h-1.006v-4.091c0-.514-.133-.915-.4-1.202-.267-.289-.634-.434-1.1-.434-.321 0-.608.069-.861.209-.25.139-.447.342-.592.609-.145.267-.217.591-.217.971Zm10.65-1.142-.903.256a1.689 1.689 0 0 0-.252-.439 1.226 1.226 0 0 0-.443-.358c-.188-.093-.428-.14-.72-.14-.401 0-.735.092-1.002.277-.264.181-.396.413-.396.694 0 .25.091.448.273.593.182.144.466.265.852.362l.972.238c.585.142 1.021.36 1.308.652.287.29.43.664.43 1.121 0 .375-.108.71-.324 1.006a2.156 2.156 0 0 1-.894.699c-.384.17-.83.255-1.338.255-.668 0-1.221-.145-1.658-.434-.438-.29-.715-.713-.831-1.27l.954-.239c.091.352.263.617.516.793.256.176.59.264 1.001.264.469 0 .841-.099 1.117-.298.278-.202.418-.443.418-.725a.763.763 0 0 0-.239-.571c-.159-.156-.403-.272-.733-.349l-1.091-.256c-.599-.142-1.04-.362-1.321-.66-.278-.302-.418-.678-.418-1.13 0-.369.104-.696.311-.98.211-.284.496-.507.857-.669a3.01 3.01 0 0 1 1.236-.243c.648 0 1.156.142 1.525.426a2.3 2.3 0 0 1 .793 1.125ZM758.057 561v-8.727h2.949c.684 0 1.244.123 1.679.37.437.245.761.576.971.993.21.418.316.884.316 1.398 0 .514-.106.982-.316 1.402a2.337 2.337 0 0 1-.963 1.006c-.434.247-.991.37-1.67.37h-2.114v-.937h2.08c.468 0 .845-.081 1.129-.243.284-.162.49-.381.618-.656.13-.279.196-.592.196-.942a2.17 2.17 0 0 0-.196-.937 1.396 1.396 0 0 0-.622-.648c-.287-.159-.668-.239-1.142-.239h-1.858V561h-1.057Zm11.606-2.676v-3.869h1.005V561h-1.005v-1.108h-.069a2.152 2.152 0 0 1-.715.848c-.324.23-.733.345-1.228.345-.409 0-.772-.089-1.091-.268a1.885 1.885 0 0 1-.75-.818c-.181-.367-.272-.829-.272-1.385v-4.159h1.005v4.09c0 .478.134.858.401 1.143.27.284.614.426 1.031.426.25 0 .504-.064.763-.192.261-.128.48-.324.656-.588.179-.264.269-.601.269-1.01Zm2.984 2.676v-8.727h1.005v3.221h.086c.073-.113.176-.258.306-.434.134-.179.324-.338.571-.478.25-.142.588-.213 1.015-.213.551 0 1.037.138 1.457.414.42.275.749.666.984 1.172.236.505.354 1.102.354 1.789 0 .694-.118 1.294-.354 1.803-.235.506-.562.898-.98 1.176-.417.276-.899.413-1.444.413-.421 0-.757-.069-1.01-.208a1.867 1.867 0 0 1-.584-.482 6.147 6.147 0 0 1-.315-.452h-.12V561h-.971Zm.988-3.273c0 .495.073.931.218 1.309.145.375.356.669.635.882.278.21.619.315 1.022.315.421 0 .772-.111 1.053-.332.284-.225.497-.526.639-.904.145-.381.217-.804.217-1.27 0-.46-.071-.875-.213-1.244a1.923 1.923 0 0 0-.635-.882c-.281-.219-.635-.328-1.061-.328-.409 0-.753.103-1.031.311a1.864 1.864 0 0 0-.631.861c-.142.366-.213.794-.213 1.282Zm7.334-5.454V561h-1.006v-8.727h1.006Zm1.842 8.727v-6.545h1.006V561h-1.006Zm.511-7.636a.713.713 0 0 1-.507-.201.642.642 0 0 1-.208-.481c0-.188.069-.348.208-.482a.717.717 0 0 1 .507-.2c.196 0 .364.067.503.2a.639.639 0 0 1 .213.482.636.636 0 0 1-.213.481.7.7 0 0 1-.503.201Zm4.996 7.772c-.614 0-1.142-.145-1.585-.434a2.83 2.83 0 0 1-1.023-1.198c-.239-.508-.358-1.089-.358-1.743 0-.664.122-1.251.366-1.76a2.9 2.9 0 0 1 1.032-1.197c.443-.29.96-.435 1.551-.435.46 0 .875.086 1.244.256s.672.409.908.716.382.665.439 1.074h-1.006a1.56 1.56 0 0 0-.511-.793c-.262-.233-.614-.349-1.057-.349-.392 0-.736.102-1.031.307a1.995 1.995 0 0 0-.687.856c-.161.367-.242.797-.242 1.291 0 .506.079.946.238 1.321.162.375.389.666.682.874.296.207.642.311 1.04.311.261 0 .498-.045.711-.136.214-.091.394-.222.542-.392.147-.171.253-.375.315-.614h1.006a2.34 2.34 0 0 1-.422 1.044 2.364 2.364 0 0 1-.882.733c-.364.179-.787.268-1.27.268Zm14.919-4.5c0 .921-.166 1.716-.499 2.387-.332.67-.788 1.187-1.368 1.551-.579.364-1.241.545-1.985.545-.745 0-1.407-.181-1.986-.545-.58-.364-1.036-.881-1.368-1.551-.332-.671-.499-1.466-.499-2.387 0-.92.167-1.716.499-2.386.332-.67.788-1.188 1.368-1.551.579-.364 1.241-.546 1.986-.546.744 0 1.406.182 1.985.546.58.363 1.036.881 1.368 1.551.333.67.499 1.466.499 2.386Zm-1.023 0c0-.755-.126-1.393-.379-1.913-.25-.52-.59-.913-1.019-1.18a2.64 2.64 0 0 0-1.431-.401c-.529 0-1.008.134-1.436.401-.427.267-.766.66-1.019 1.18-.25.52-.375 1.158-.375 1.913 0 .756.125 1.394.375 1.914.253.52.592.913 1.019 1.18.428.267.907.401 1.436.401a2.64 2.64 0 0 0 1.431-.401c.429-.267.769-.66 1.019-1.18.253-.52.379-1.158.379-1.914Zm2.663 6.819v-9h.972v1.039h.119c.074-.113.177-.258.307-.434.134-.179.324-.338.571-.478.25-.142.588-.213 1.014-.213.552 0 1.037.138 1.458.414.42.275.748.666.984 1.172.236.505.354 1.102.354 1.789 0 .694-.118 1.294-.354 1.803-.236.506-.562.898-.98 1.176-.418.276-.899.413-1.445.413-.42 0-.757-.069-1.009-.208a1.867 1.867 0 0 1-.584-.482 6.21 6.21 0 0 1-.316-.452h-.085v3.461h-1.006Zm.989-5.728c0 .495.073.931.217 1.309.145.375.357.669.635.882.279.21.62.315 1.023.315.421 0 .771-.111 1.053-.332.284-.225.497-.526.639-.904.145-.381.217-.804.217-1.27 0-.46-.071-.875-.213-1.244a1.923 1.923 0 0 0-.635-.882c-.281-.219-.635-.328-1.061-.328-.409 0-.753.103-1.031.311-.279.204-.489.491-.631.861-.142.366-.213.794-.213 1.282ZM812.19 561v-6.545h1.006V561h-1.006Zm.511-7.636a.713.713 0 0 1-.507-.201.643.643 0 0 1-.209-.481c0-.188.07-.348.209-.482a.717.717 0 0 1 .507-.2c.196 0 .364.067.503.2a.639.639 0 0 1 .213.482.636.636 0 0 1-.213.481.7.7 0 0 1-.503.201Zm3.342 3.698V561h-1.005v-6.545h.971v1.022h.085a1.88 1.88 0 0 1 .699-.801c.313-.204.716-.307 1.211-.307.443 0 .831.091 1.163.273.332.179.591.452.775.818.185.364.277.824.277 1.381V561h-1.005v-4.091c0-.514-.134-.915-.401-1.202-.267-.289-.633-.434-1.099-.434-.321 0-.608.069-.861.209-.25.139-.447.342-.592.609-.145.267-.218.591-.218.971Zm6.014 3.938v-6.545h1.006V561h-1.006Zm.512-7.636a.716.716 0 0 1-.508-.201.642.642 0 0 1-.208-.481c0-.188.069-.348.208-.482a.72.72 0 0 1 .508-.2.7.7 0 0 1 .502.2.639.639 0 0 1 .213.482.636.636 0 0 1-.213.481.697.697 0 0 1-.502.201Zm4.995 7.772c-.591 0-1.109-.14-1.555-.422a2.856 2.856 0 0 1-1.04-1.18c-.247-.506-.371-1.097-.371-1.773 0-.681.124-1.277.371-1.785.25-.509.596-.904 1.04-1.185.446-.281.964-.422 1.555-.422s1.108.141 1.551.422c.446.281.793.676 1.04 1.185.25.508.375 1.104.375 1.785 0 .676-.125 1.267-.375 1.773a2.822 2.822 0 0 1-1.04 1.18c-.443.282-.96.422-1.551.422Zm0-.903c.449 0 .818-.115 1.108-.345.29-.23.504-.533.643-.908.14-.375.209-.781.209-1.219 0-.437-.069-.845-.209-1.223a2.061 2.061 0 0 0-.643-.916c-.29-.233-.659-.349-1.108-.349-.449 0-.818.116-1.108.349-.29.233-.504.539-.644.916a3.518 3.518 0 0 0-.208 1.223c0 .438.069.844.208 1.219.14.375.354.678.644.908.29.23.659.345 1.108.345Zm5.507-3.171V561h-1.006v-6.545h.972v1.022h.085c.153-.332.386-.599.699-.801.312-.204.716-.307 1.21-.307.443 0 .831.091 1.163.273.333.179.591.452.776.818.184.364.277.824.277 1.381V561h-1.006v-4.091c0-.514-.133-.915-.4-1.202-.267-.289-.634-.434-1.1-.434-.321 0-.608.069-.861.209-.25.139-.447.342-.592.609-.145.267-.217.591-.217.971Zm9.525 3.938v-8.727h2.949c.682 0 1.241.116 1.679.349.437.23.761.547.971.95.211.404.316.863.316 1.377s-.105.97-.316 1.368a2.22 2.22 0 0 1-.967.937c-.435.225-.99.337-1.666.337h-2.387v-.955h2.353c.466 0 .841-.068 1.125-.204.287-.137.494-.33.622-.58a1.94 1.94 0 0 0 .196-.903c0-.35-.065-.655-.196-.916a1.336 1.336 0 0 0-.627-.605c-.286-.145-.666-.218-1.137-.218h-1.858V561h-1.057Zm4.108-3.92 2.148 3.92h-1.228l-2.113-3.92h1.193Zm6.105 4.056c-.63 0-1.174-.139-1.632-.417a2.808 2.808 0 0 1-1.052-1.176c-.245-.506-.367-1.094-.367-1.765 0-.67.122-1.261.367-1.772a2.888 2.888 0 0 1 1.031-1.202c.443-.29.96-.435 1.551-.435.341 0 .678.057 1.01.171.332.113.635.298.908.554.272.253.49.588.652 1.005.162.418.243.932.243 1.543v.426h-5.046v-.869h4.023c0-.369-.074-.699-.222-.989a1.67 1.67 0 0 0-.622-.686 1.746 1.746 0 0 0-.946-.251c-.401 0-.747.099-1.04.298a1.96 1.96 0 0 0-.669.767 2.254 2.254 0 0 0-.234 1.014v.58c0 .494.085.913.256 1.257.173.341.413.601.72.78a2.11 2.11 0 0 0 1.069.264c.265 0 .503-.037.716-.111.216-.077.402-.19.558-.341a1.55 1.55 0 0 0 .363-.571l.971.273a2.158 2.158 0 0 1-.515.869 2.52 2.52 0 0 1-.895.58 3.33 3.33 0 0 1-1.198.204Zm8.877-5.216-.904.256a1.684 1.684 0 0 0-.251-.439 1.226 1.226 0 0 0-.443-.358c-.188-.093-.428-.14-.72-.14-.401 0-.735.092-1.002.277-.264.181-.396.413-.396.694 0 .25.091.448.273.593.181.144.465.265.852.362l.971.238c.586.142 1.022.36 1.309.652.287.29.43.664.43 1.121 0 .375-.108.71-.324 1.006a2.153 2.153 0 0 1-.895.699c-.383.17-.829.255-1.338.255-.667 0-1.22-.145-1.657-.434-.438-.29-.715-.713-.831-1.27l.954-.239c.091.352.263.617.516.793.255.176.589.264 1.001.264.469 0 .841-.099 1.117-.298.278-.202.417-.443.417-.725a.762.762 0 0 0-.238-.571c-.159-.156-.404-.272-.733-.349l-1.091-.256c-.6-.142-1.04-.362-1.321-.66-.279-.302-.418-.678-.418-1.13 0-.369.104-.696.311-.98.21-.284.496-.507.857-.669a3.003 3.003 0 0 1 1.236-.243c.647 0 1.156.142 1.525.426.372.285.636.66.793 1.125Zm4.377 5.216c-.63 0-1.175-.139-1.632-.417a2.808 2.808 0 0 1-1.052-1.176c-.245-.506-.367-1.094-.367-1.765 0-.67.122-1.261.367-1.772.247-.515.59-.915 1.031-1.202.443-.29.96-.435 1.551-.435.341 0 .677.057 1.01.171.332.113.635.298.908.554.272.253.49.588.652 1.005.161.418.242.932.242 1.543v.426h-5.045v-.869h4.023c0-.369-.074-.699-.222-.989a1.67 1.67 0 0 0-.622-.686 1.746 1.746 0 0 0-.946-.251c-.401 0-.747.099-1.04.298a1.96 1.96 0 0 0-.669.767 2.254 2.254 0 0 0-.234 1.014v.58c0 .494.085.913.255 1.257.174.341.414.601.721.78.306.176.663.264 1.069.264.264 0 .503-.037.716-.111.216-.077.402-.19.558-.341a1.55 1.55 0 0 0 .363-.571l.971.273a2.158 2.158 0 0 1-.515.869 2.52 2.52 0 0 1-.895.58 3.33 3.33 0 0 1-1.198.204Zm6.166.017c-.414 0-.791-.078-1.129-.234a1.94 1.94 0 0 1-.805-.686c-.199-.301-.299-.665-.299-1.091 0-.375.074-.679.222-.912.148-.236.345-.42.592-.554.248-.133.52-.233.819-.298.301-.068.603-.122.907-.162.398-.051.72-.09.968-.115.25-.029.431-.075.545-.141.116-.065.175-.179.175-.341v-.034c0-.42-.115-.747-.345-.98-.228-.233-.573-.349-1.036-.349-.48 0-.856.105-1.129.315-.273.21-.465.435-.576.673l-.954-.341c.17-.397.398-.707.682-.929.287-.224.599-.38.937-.468a3.89 3.89 0 0 1 1.006-.137c.21 0 .452.026.724.077.276.048.542.149.797.303.259.153.473.385.644.694.17.31.255.725.255 1.245V561h-1.005v-.886h-.051a1.794 1.794 0 0 1-.341.456 1.973 1.973 0 0 1-.635.413c-.264.114-.587.17-.968.17Zm.154-.903c.398 0 .733-.078 1.005-.234.276-.157.483-.358.623-.605.142-.248.213-.508.213-.78v-.921c-.043.051-.137.098-.282.141-.142.04-.306.075-.494.106a21.302 21.302 0 0 1-.963.128c-.261.034-.506.09-.733.166a1.261 1.261 0 0 0-.545.337c-.137.148-.205.349-.205.605 0 .35.129.614.388.793.261.176.592.264.993.264Zm4.682.75v-6.545h.972v.988h.068c.119-.324.335-.586.647-.788a1.906 1.906 0 0 1 1.057-.303 10.862 10.862 0 0 1 .529.017v1.023a3.377 3.377 0 0 0-.235-.038 2.284 2.284 0 0 0-.379-.03c-.318 0-.602.067-.852.2a1.468 1.468 0 0 0-.801 1.334V561h-1.006Zm6.925.136c-.614 0-1.142-.145-1.586-.434a2.828 2.828 0 0 1-1.022-1.198c-.239-.508-.358-1.089-.358-1.743 0-.664.122-1.251.366-1.76.247-.511.591-.91 1.032-1.197.443-.29.96-.435 1.551-.435.46 0 .875.086 1.244.256s.672.409.908.716c.235.307.382.665.439 1.074h-1.006a1.56 1.56 0 0 0-.511-.793c-.262-.233-.614-.349-1.057-.349-.392 0-.736.102-1.032.307a2 2 0 0 0-.686.856c-.162.367-.243.797-.243 1.291 0 .506.08.946.239 1.321.162.375.389.666.682.874.295.207.642.311 1.04.311.261 0 .498-.045.711-.136a1.48 1.48 0 0 0 .542-.392 1.52 1.52 0 0 0 .315-.614h1.006a2.34 2.34 0 0 1-.422 1.044 2.364 2.364 0 0 1-.882.733c-.364.179-.787.268-1.27.268Zm5.049-4.074V561h-1.005v-8.727h1.005v3.204h.086c.153-.338.383-.606.69-.805.31-.202.722-.303 1.236-.303.446 0 .836.09 1.172.269a1.8 1.8 0 0 1 .779.814c.188.363.282.826.282 1.389V561h-1.006v-4.091c0-.52-.135-.922-.405-1.206-.267-.287-.638-.43-1.112-.43-.33 0-.625.069-.886.209a1.524 1.524 0 0 0-.614.609c-.148.267-.222.591-.222.971Zm-720.619 6.574c0 .921-.166 1.716-.498 2.387-.333.67-.788 1.187-1.368 1.551-.58.364-1.241.545-1.986.545-.744 0-1.406-.181-1.986-.545-.579-.364-1.035-.881-1.368-1.551-.332-.671-.498-1.466-.498-2.387 0-.92.166-1.716.498-2.386.333-.67.789-1.188 1.368-1.551.58-.364 1.242-.546 1.986-.546.745 0 1.406.182 1.986.546.58.363 1.035.881 1.368 1.551.332.67.498 1.466.498 2.386Zm-1.022 0c0-.755-.127-1.393-.38-1.913-.25-.52-.589-.913-1.018-1.18a2.64 2.64 0 0 0-1.432-.401c-.528 0-1.007.134-1.436.401-.426.267-.766.66-1.018 1.18-.25.52-.375 1.158-.375 1.913 0 .756.125 1.394.375 1.914.252.52.592.913 1.018 1.18.429.267.908.401 1.436.401a2.64 2.64 0 0 0 1.432-.401c.429-.267.768-.66 1.018-1.18.253-.52.38-1.158.38-1.914Zm7.572-2.181a1.337 1.337 0 0 0-.622-1.006c-.364-.239-.81-.358-1.338-.358-.386 0-.724.062-1.014.187a1.62 1.62 0 0 0-.674.516 1.236 1.236 0 0 0-.238.746c0 .233.055.433.166.601.114.164.259.302.435.413.176.108.36.197.554.268.193.069.37.124.532.167l.887.238c.227.06.48.142.758.247.281.106.55.249.806.431.258.179.471.409.639.69.167.281.251.627.251 1.036 0 .471-.123.897-.371 1.278-.244.381-.602.683-1.073.908-.469.224-1.039.336-1.709.336-.625 0-1.166-.1-1.624-.302a2.596 2.596 0 0 1-1.074-.844 2.421 2.421 0 0 1-.439-1.257h1.091c.029.33.14.602.333.818a1.8 1.8 0 0 0 .741.477c.301.103.625.154.972.154.403 0 .765-.065 1.086-.196.321-.134.576-.318.763-.554a1.31 1.31 0 0 0 .281-.835c0-.29-.08-.526-.242-.708a1.781 1.781 0 0 0-.64-.443 6.598 6.598 0 0 0-.856-.298l-1.074-.307c-.682-.196-1.222-.476-1.619-.84-.398-.363-.597-.839-.597-1.427 0-.489.132-.915.396-1.279.267-.366.625-.65 1.074-.852a3.636 3.636 0 0 1 1.513-.307c.563 0 1.063.101 1.5.303a2.6 2.6 0 0 1 1.04.818c.258.347.395.74.409 1.181h-1.023Zm9.8-2.182V568h-1.022l-4.756-6.852h-.085V568h-1.057v-8.727h1.023l4.772 6.869h.085v-6.869h1.04Zm3.172 0V568h-1.057v-8.727h1.057Zm1.641.937v-.937h6.546v.937h-2.744V568h-1.057v-7.79h-2.745Zm12.609-.937V568h-1.057v-8.727h1.057Zm2.988 4.789V568h-1.006v-6.545h.972v1.022h.085a1.88 1.88 0 0 1 .699-.801c.313-.204.716-.307 1.21-.307.443 0 .831.091 1.164.273.332.179.591.452.775.818.185.364.277.824.277 1.381V568h-1.006v-4.091c0-.514-.133-.915-.4-1.202-.267-.289-.634-.434-1.1-.434-.321 0-.607.069-.86.209-.25.139-.448.342-.593.609-.145.267-.217.591-.217.971Zm11.132-2.607L213.891 568h-1.022l-2.421-6.545h1.091l1.807 5.215h.068l1.807-5.215h1.091Zm3.837 6.681c-.631 0-1.175-.139-1.632-.417a2.81 2.81 0 0 1-1.053-1.176c-.244-.506-.366-1.094-.366-1.765 0-.67.122-1.261.366-1.772a2.89 2.89 0 0 1 1.032-1.202c.443-.29.96-.435 1.551-.435.341 0 .677.057 1.01.171.332.113.635.298.907.554.273.253.491.588.652 1.005.162.418.243.932.243 1.543v.426h-5.045v-.869h4.023c0-.369-.074-.699-.222-.989a1.67 1.67 0 0 0-.622-.686 1.746 1.746 0 0 0-.946-.251c-.401 0-.747.099-1.04.298a1.96 1.96 0 0 0-.669.767 2.254 2.254 0 0 0-.234 1.014v.58c0 .494.085.913.255 1.257.174.341.414.601.721.78.306.176.663.264 1.069.264.264 0 .503-.037.716-.111.216-.077.402-.19.558-.341a1.55 1.55 0 0 0 .363-.571l.971.273a2.149 2.149 0 0 1-.516.869 2.507 2.507 0 0 1-.894.58 3.334 3.334 0 0 1-1.198.204Zm8.877-5.216-.904.256a1.684 1.684 0 0 0-.251-.439 1.226 1.226 0 0 0-.443-.358c-.188-.093-.428-.14-.721-.14-.4 0-.734.092-1.001.277-.264.181-.396.413-.396.694 0 .25.091.448.272.593.182.144.466.265.853.362l.971.238c.585.142 1.022.36 1.308.652.287.29.431.664.431 1.121 0 .375-.108.71-.324 1.006a2.153 2.153 0 0 1-.895.699c-.383.17-.829.255-1.338.255-.668 0-1.22-.145-1.658-.434-.437-.29-.714-.713-.831-1.27l.955-.239c.091.352.263.617.516.793.255.176.589.264 1.001.264.469 0 .841-.099 1.117-.298.278-.202.417-.443.417-.725a.76.76 0 0 0-.239-.571c-.159-.156-.403-.272-.732-.349l-1.091-.256c-.6-.142-1.04-.362-1.321-.66-.279-.302-.418-.678-.418-1.13 0-.369.104-.696.311-.98.21-.284.496-.507.857-.669a3.001 3.001 0 0 1 1.235-.243c.648 0 1.157.142 1.526.426.372.285.636.66.793 1.125Zm4.479-1.465v.852h-3.392v-.852h3.392Zm-2.403-1.569h1.006v6.239c0 .284.041.497.123.639a.637.637 0 0 0 .324.281c.134.046.274.069.422.069.111 0 .202-.006.273-.017l.17-.035.205.904a2.246 2.246 0 0 1-.75.119c-.284 0-.563-.061-.836-.183a1.662 1.662 0 0 1-.673-.558c-.176-.25-.264-.566-.264-.946v-6.512Zm3.916 8.114v-6.545h1.006V568h-1.006Zm.511-7.636a.713.713 0 0 1-.507-.201.642.642 0 0 1-.208-.481c0-.188.069-.348.208-.482a.717.717 0 0 1 .507-.2c.196 0 .364.067.503.2a.639.639 0 0 1 .213.482.636.636 0 0 1-.213.481.7.7 0 0 1-.503.201Zm4.979 10.227c-.486 0-.904-.063-1.253-.188a2.674 2.674 0 0 1-.874-.485 2.64 2.64 0 0 1-.549-.64l.801-.562c.091.119.206.256.345.409.139.156.33.291.571.405.244.116.564.175.959.175.528 0 .964-.128 1.308-.384.344-.256.516-.656.516-1.202v-1.329h-.086a5.312 5.312 0 0 1-.315.443 1.787 1.787 0 0 1-.579.464c-.25.134-.589.201-1.015.201a2.733 2.733 0 0 1-1.423-.375 2.628 2.628 0 0 1-.993-1.091c-.241-.477-.362-1.057-.362-1.739 0-.67.118-1.254.354-1.751.235-.5.564-.887.984-1.159.42-.276.906-.414 1.457-.414.427 0 .765.071 1.015.213.252.14.446.299.579.478.137.176.242.321.315.434h.103v-1.039h.971v6.733c0 .562-.127 1.019-.383 1.372a2.18 2.18 0 0 1-1.023.779c-.426.168-.9.252-1.423.252Zm-.034-3.597c.403 0 .744-.092 1.022-.277.279-.184.491-.45.635-.797.145-.346.218-.761.218-1.244 0-.471-.071-.888-.213-1.248a1.872 1.872 0 0 0-.631-.848c-.278-.205-.622-.307-1.031-.307-.426 0-.782.108-1.066.324a1.966 1.966 0 0 0-.635.869 3.366 3.366 0 0 0-.208 1.21c0 .455.071.857.213 1.206.145.347.358.619.639.818.284.196.636.294 1.057.294Zm6.63 1.159c-.414 0-.791-.078-1.129-.234a1.94 1.94 0 0 1-.805-.686c-.199-.301-.299-.665-.299-1.091 0-.375.074-.679.222-.912.148-.236.345-.42.592-.554.248-.133.52-.233.819-.298.301-.068.603-.122.907-.162.398-.051.72-.09.968-.115.25-.029.431-.075.545-.141.116-.065.175-.179.175-.341v-.034c0-.42-.115-.747-.345-.98-.228-.233-.573-.349-1.036-.349-.48 0-.856.105-1.129.315-.273.21-.465.435-.576.673l-.954-.341c.17-.397.398-.707.682-.929.287-.224.599-.38.937-.468a3.89 3.89 0 0 1 1.006-.137c.21 0 .452.026.724.077.276.048.542.149.797.303.259.153.473.385.644.694.17.31.255.725.255 1.245V568h-1.005v-.886h-.051a1.794 1.794 0 0 1-.341.456 1.973 1.973 0 0 1-.635.413c-.264.114-.587.17-.968.17Zm.154-.903c.398 0 .733-.078 1.005-.234.276-.157.483-.358.623-.605.142-.248.213-.508.213-.78v-.921c-.043.051-.137.098-.282.141-.142.04-.306.075-.494.106a21.302 21.302 0 0 1-.963.128c-.261.034-.506.09-.733.166a1.261 1.261 0 0 0-.545.337c-.137.148-.205.349-.205.605 0 .35.129.614.388.793.261.176.592.264.993.264Zm7.529-5.795v.852h-3.392v-.852h3.392Zm-2.404-1.569h1.006v6.239c0 .284.041.497.123.639a.645.645 0 0 0 .324.281c.134.046.274.069.422.069.111 0 .202-.006.273-.017l.17-.035.205.904a2.156 2.156 0 0 1-.75.119c-.284 0-.563-.061-.835-.183a1.659 1.659 0 0 1-.674-.558c-.176-.25-.264-.566-.264-.946v-6.512Zm3.916 8.114v-6.545h1.006V568h-1.006Zm.512-7.636a.713.713 0 0 1-.507-.201.64.64 0 0 1-.209-.481c0-.188.069-.348.209-.482a.717.717 0 0 1 .507-.2c.196 0 .363.067.503.2a.639.639 0 0 1 .213.482.636.636 0 0 1-.213.481.7.7 0 0 1-.503.201Zm4.995 7.772c-.591 0-1.109-.14-1.555-.422a2.863 2.863 0 0 1-1.04-1.18c-.247-.506-.371-1.097-.371-1.773 0-.681.124-1.277.371-1.785.25-.509.597-.904 1.04-1.185.446-.281.964-.422 1.555-.422s1.108.141 1.551.422c.446.281.793.676 1.04 1.185.25.508.375 1.104.375 1.785 0 .676-.125 1.267-.375 1.773a2.822 2.822 0 0 1-1.04 1.18c-.443.282-.96.422-1.551.422Zm0-.903c.449 0 .818-.115 1.108-.345.29-.23.504-.533.644-.908.139-.375.208-.781.208-1.219 0-.437-.069-.845-.208-1.223a2.071 2.071 0 0 0-.644-.916c-.29-.233-.659-.349-1.108-.349-.449 0-.818.116-1.108.349-.29.233-.504.539-.643.916-.14.378-.209.786-.209 1.223 0 .438.069.844.209 1.219.139.375.353.678.643.908.29.23.659.345 1.108.345Zm5.507-3.171V568h-1.006v-6.545h.972v1.022h.085c.153-.332.386-.599.699-.801.312-.204.716-.307 1.21-.307.443 0 .831.091 1.163.273.333.179.591.452.776.818.185.364.277.824.277 1.381V568h-1.006v-4.091c0-.514-.133-.915-.4-1.202-.267-.289-.634-.434-1.1-.434-.321 0-.608.069-.86.209-.25.139-.448.342-.593.609-.145.267-.217.591-.217.971Zm10.65-1.142-.903.256a1.689 1.689 0 0 0-.252-.439 1.217 1.217 0 0 0-.443-.358c-.187-.093-.427-.14-.72-.14-.401 0-.734.092-1.002.277-.264.181-.396.413-.396.694 0 .25.091.448.273.593.182.144.466.265.852.362l.972.238c.585.142 1.021.36 1.308.652.287.29.43.664.43 1.121 0 .375-.108.71-.323 1.006a2.166 2.166 0 0 1-.895.699c-.384.17-.83.255-1.338.255-.668 0-1.221-.145-1.658-.434-.438-.29-.715-.713-.831-1.27l.954-.239c.091.352.263.617.516.793.256.176.59.264 1.002.264.468 0 .84-.099 1.116-.298.278-.202.418-.443.418-.725a.763.763 0 0 0-.239-.571c-.159-.156-.403-.272-.733-.349l-1.091-.256c-.599-.142-1.04-.362-1.321-.66-.278-.302-.418-.678-.418-1.13 0-.369.104-.696.312-.98.21-.284.495-.507.856-.669a3.01 3.01 0 0 1 1.236-.243c.648 0 1.156.142 1.525.426a2.3 2.3 0 0 1 .793 1.125ZM162.227 454.273h1.159l.972 1.278.256.341 1.448 1.926h-1.159l-.954-1.278-.239-.324-1.483-1.943Zm4.193-1.637c0 .921-.166 1.716-.498 2.387-.333.67-.788 1.187-1.368 1.551-.58.364-1.241.545-1.986.545-.744 0-1.406-.181-1.986-.545-.579-.364-1.035-.881-1.368-1.551-.332-.671-.498-1.466-.498-2.387 0-.92.166-1.716.498-2.386.333-.67.789-1.188 1.368-1.551.58-.364 1.242-.546 1.986-.546.745 0 1.406.182 1.986.546.58.363 1.035.881 1.368 1.551.332.67.498 1.466.498 2.386Zm-1.022 0c0-.755-.127-1.393-.38-1.913-.25-.52-.589-.913-1.018-1.18a2.64 2.64 0 0 0-1.432-.401c-.528 0-1.007.134-1.436.401-.426.267-.766.66-1.018 1.18-.25.52-.375 1.158-.375 1.913 0 .756.125 1.394.375 1.914.252.52.592.913 1.018 1.18.429.267.908.401 1.436.401a2.64 2.64 0 0 0 1.432-.401c.429-.267.768-.66 1.018-1.18.253-.52.38-1.158.38-1.914Zm6.788 1.688v-3.869h1.006V457h-1.006v-1.108h-.068a2.154 2.154 0 0 1-.716.848c-.324.23-.733.345-1.227.345-.409 0-.773-.089-1.091-.268a1.885 1.885 0 0 1-.75-.818c-.182-.367-.273-.829-.273-1.385v-4.159h1.006v4.09c0 .478.133.858.4 1.143.27.284.614.426 1.032.426.25 0 .504-.064.762-.192.262-.128.48-.324.657-.588.179-.264.268-.601.268-1.01Zm4.774 2.829c-.415 0-.791-.078-1.129-.234a1.942 1.942 0 0 1-.806-.686c-.199-.301-.298-.665-.298-1.091 0-.375.074-.679.222-.912.147-.236.345-.42.592-.554a3.12 3.12 0 0 1 .818-.298 10.1 10.1 0 0 1 .908-.162c.397-.051.72-.09.967-.115.25-.029.432-.075.545-.141.117-.065.175-.179.175-.341v-.034c0-.42-.115-.747-.345-.98-.227-.233-.572-.349-1.035-.349-.481 0-.857.105-1.13.315-.272.21-.464.435-.575.673l-.955-.341c.171-.397.398-.707.682-.929.287-.224.6-.38.938-.468a3.888 3.888 0 0 1 1.005-.137c.211 0 .452.026.725.077.275.048.541.149.797.303.258.153.473.385.643.694.171.31.256.725.256 1.245V457h-1.006v-.886h-.051a1.77 1.77 0 0 1-.341.456 1.973 1.973 0 0 1-.635.413c-.264.114-.586.17-.967.17Zm.153-.903c.398 0 .733-.078 1.006-.234a1.597 1.597 0 0 0 .835-1.385v-.921c-.042.051-.136.098-.281.141a4.65 4.65 0 0 1-.494.106 20.745 20.745 0 0 1-.963.128c-.262.034-.506.09-.733.166a1.259 1.259 0 0 0-.546.337c-.136.148-.204.349-.204.605 0 .35.129.614.387.793.262.176.593.264.993.264Zm5.688-7.977V457h-1.006v-8.727h1.006Zm1.842 8.727v-6.545h1.006V457h-1.006Zm.511-7.636a.713.713 0 0 1-.507-.201.642.642 0 0 1-.208-.481c0-.188.069-.348.208-.482a.717.717 0 0 1 .507-.2c.196 0 .364.067.503.2a.639.639 0 0 1 .213.482.636.636 0 0 1-.213.481.7.7 0 0 1-.503.201Zm5.183 1.091v.852h-3.392v-.852h3.392Zm-2.403-1.569h1.006v6.239c0 .284.041.497.123.639a.637.637 0 0 0 .324.281c.134.046.274.069.422.069.111 0 .202-.006.273-.017l.17-.035.205.904a2.246 2.246 0 0 1-.75.119c-.284 0-.563-.061-.836-.183a1.662 1.662 0 0 1-.673-.558c-.176-.25-.264-.566-.264-.946v-6.512Zm5.842 8.267c-.414 0-.791-.078-1.129-.234a1.933 1.933 0 0 1-.805-.686c-.199-.301-.299-.665-.299-1.091 0-.375.074-.679.222-.912.148-.236.345-.42.592-.554a3.12 3.12 0 0 1 .818-.298c.302-.068.604-.122.908-.162.398-.051.72-.09.967-.115.25-.029.432-.075.546-.141.116-.065.175-.179.175-.341v-.034c0-.42-.115-.747-.346-.98-.227-.233-.572-.349-1.035-.349-.48 0-.857.105-1.129.315-.273.21-.465.435-.576.673l-.954-.341c.17-.397.398-.707.682-.929.287-.224.599-.38.937-.468a3.89 3.89 0 0 1 1.006-.137c.21 0 .452.026.724.077.276.048.541.149.797.303.259.153.473.385.644.694.17.31.255.725.255 1.245V457h-1.005v-.886h-.052a1.764 1.764 0 0 1-.34.456c-.16.162-.371.299-.635.413-.265.114-.587.17-.968.17Zm.154-.903c.397 0 .733-.078 1.005-.234.276-.157.483-.358.623-.605.142-.248.213-.508.213-.78v-.921c-.043.051-.137.098-.282.141-.142.04-.306.075-.494.106a21.302 21.302 0 0 1-.963.128c-.261.034-.506.09-.733.166a1.261 1.261 0 0 0-.545.337c-.137.148-.205.349-.205.605 0 .35.129.614.388.793.261.176.592.264.993.264Zm7.528-5.795v.852h-3.392v-.852h3.392Zm-2.403-1.569h1.006v6.239c0 .284.041.497.123.639a.641.641 0 0 0 .324.281c.134.046.274.069.422.069.111 0 .202-.006.273-.017l.17-.035.205.904a2.2 2.2 0 0 1-.75.119c-.284 0-.563-.061-.835-.183a1.659 1.659 0 0 1-.674-.558c-.176-.25-.264-.566-.264-.946v-6.512Zm3.916 8.114v-6.545h1.006V457h-1.006Zm.512-7.636a.717.717 0 0 1-.508-.201.642.642 0 0 1-.208-.481c0-.188.069-.348.208-.482a.72.72 0 0 1 .508-.2.7.7 0 0 1 .502.2.64.64 0 0 1 .214.482.637.637 0 0 1-.214.481.697.697 0 0 1-.502.201Zm7.688 1.091-2.42 6.545h-1.023l-2.42-6.545h1.09l1.807 5.215h.068l1.807-5.215h1.091Zm3.838 6.681c-.631 0-1.175-.139-1.633-.417a2.808 2.808 0 0 1-1.052-1.176c-.244-.506-.367-1.094-.367-1.765 0-.67.123-1.261.367-1.772a2.888 2.888 0 0 1 1.031-1.202c.443-.29.96-.435 1.551-.435.341 0 .678.057 1.01.171.333.113.635.298.908.554.273.253.49.588.652 1.005.162.418.243.932.243 1.543v.426h-5.046v-.869h4.023c0-.369-.074-.699-.222-.989a1.663 1.663 0 0 0-.622-.686 1.746 1.746 0 0 0-.946-.251c-.4 0-.747.099-1.04.298a1.976 1.976 0 0 0-.669.767 2.254 2.254 0 0 0-.234 1.014v.58c0 .494.085.913.256 1.257.173.341.413.601.72.78.307.176.663.264 1.07.264.264 0 .502-.037.715-.111a1.54 1.54 0 0 0 .559-.341c.156-.153.277-.344.362-.571l.971.273a2.158 2.158 0 0 1-.515.869 2.52 2.52 0 0 1-.895.58 3.325 3.325 0 0 1-1.197.204Zm8.808-8.863V457h-1.057v-8.727h1.057Zm2.988 4.789V457h-1.006v-6.545h.972v1.022h.085a1.88 1.88 0 0 1 .699-.801c.313-.204.716-.307 1.21-.307.443 0 .831.091 1.164.273.332.179.591.452.775.818.185.364.277.824.277 1.381V457h-1.006v-4.091c0-.514-.133-.915-.4-1.202-.267-.289-.634-.434-1.1-.434-.321 0-.607.069-.86.209-.25.139-.448.342-.593.609-.145.267-.217.591-.217.971Zm8.86-2.607v.852h-3.392v-.852h3.392Zm-2.403-1.569h1.006v6.239c0 .284.041.497.123.639a.645.645 0 0 0 .324.281c.134.046.274.069.422.069.111 0 .202-.006.273-.017l.17-.035.205.904a2.2 2.2 0 0 1-.75.119c-.284 0-.563-.061-.835-.183a1.659 1.659 0 0 1-.674-.558c-.176-.25-.264-.566-.264-.946v-6.512Zm6.59 8.25c-.63 0-1.174-.139-1.632-.417a2.808 2.808 0 0 1-1.052-1.176c-.245-.506-.367-1.094-.367-1.765 0-.67.122-1.261.367-1.772a2.888 2.888 0 0 1 1.031-1.202c.443-.29.96-.435 1.551-.435.341 0 .678.057 1.01.171.332.113.635.298.908.554.272.253.49.588.652 1.005.162.418.242.932.242 1.543v.426h-5.045v-.869h4.023c0-.369-.074-.699-.222-.989a1.67 1.67 0 0 0-.622-.686 1.746 1.746 0 0 0-.946-.251c-.401 0-.747.099-1.04.298a1.96 1.96 0 0 0-.669.767 2.254 2.254 0 0 0-.234 1.014v.58c0 .494.085.913.255 1.257.174.341.414.601.721.78.306.176.663.264 1.069.264.264 0 .503-.037.716-.111.216-.077.402-.19.558-.341a1.55 1.55 0 0 0 .363-.571l.971.273a2.158 2.158 0 0 1-.515.869 2.52 2.52 0 0 1-.895.58 3.33 3.33 0 0 1-1.198.204Zm4.24-.136v-6.545h.972v.988h.068c.119-.324.335-.586.648-.788a1.904 1.904 0 0 1 1.057-.303 10.862 10.862 0 0 1 .528.017v1.023a3.308 3.308 0 0 0-.234-.038c-.12-.02-.246-.03-.38-.03-.318 0-.602.067-.852.2a1.468 1.468 0 0 0-.801 1.334V457h-1.006Zm10.017-6.545L251.688 457h-1.023l-2.42-6.545h1.091l1.807 5.215h.068l1.807-5.215h1.091Zm1.327 6.545v-6.545h1.006V457h-1.006Zm.511-7.636a.713.713 0 0 1-.507-.201.642.642 0 0 1-.208-.481c0-.188.069-.348.208-.482a.717.717 0 0 1 .507-.2c.196 0 .364.067.503.2a.639.639 0 0 1 .213.482.636.636 0 0 1-.213.481.7.7 0 0 1-.503.201Zm5.081 7.772c-.631 0-1.175-.139-1.632-.417a2.81 2.81 0 0 1-1.053-1.176c-.244-.506-.366-1.094-.366-1.765 0-.67.122-1.261.366-1.772a2.89 2.89 0 0 1 1.032-1.202c.443-.29.96-.435 1.551-.435.341 0 .677.057 1.01.171.332.113.635.298.907.554.273.253.49.588.652 1.005.162.418.243.932.243 1.543v.426h-5.045v-.869h4.023c0-.369-.074-.699-.222-.989a1.67 1.67 0 0 0-.622-.686 1.749 1.749 0 0 0-.946-.251c-.401 0-.747.099-1.04.298a1.96 1.96 0 0 0-.669.767 2.254 2.254 0 0 0-.234 1.014v.58c0 .494.085.913.255 1.257.174.341.414.601.72.78.307.176.664.264 1.07.264.264 0 .503-.037.716-.111.216-.077.402-.19.558-.341.156-.153.277-.344.362-.571l.972.273a2.149 2.149 0 0 1-.516.869 2.502 2.502 0 0 1-.895.58 3.325 3.325 0 0 1-1.197.204Zm5.723-.136-1.994-6.545h1.057l1.414 5.011h.069l1.397-5.011h1.074l1.381 4.994h.068l1.415-4.994h1.057L271.694 457h-.988l-1.432-5.028h-.102L267.74 457h-.989Zm12.903-5.08-.903.256a1.713 1.713 0 0 0-.251-.439 1.22 1.22 0 0 0-.444-.358c-.187-.093-.427-.14-.72-.14-.4 0-.734.092-1.001.277-.264.181-.396.413-.396.694 0 .25.09.448.272.593.182.144.466.265.853.362l.971.238c.585.142 1.021.36 1.308.652.287.29.431.664.431 1.121 0 .375-.108.71-.324 1.006a2.153 2.153 0 0 1-.895.699c-.383.17-.83.255-1.338.255-.668 0-1.22-.145-1.658-.434-.437-.29-.714-.713-.831-1.27l.955-.239c.091.352.263.617.516.793.255.176.589.264 1.001.264.469 0 .841-.099 1.116-.298.279-.202.418-.443.418-.725a.763.763 0 0 0-.239-.571c-.159-.156-.403-.272-.733-.349l-1.09-.256c-.6-.142-1.04-.362-1.322-.66-.278-.302-.417-.678-.417-1.13 0-.369.104-.696.311-.98a2.12 2.12 0 0 1 .856-.669 3.01 3.01 0 0 1 1.236-.243c.648 0 1.157.142 1.526.426.372.285.636.66.792 1.125Zm504.403-3.647h1.261l2.966 7.244h.102l2.966-7.244h1.262V457h-.989v-6.631h-.085L788.812 457h-.954l-2.727-6.631h-.086V457h-.988v-8.727Zm13.284 8.863c-.631 0-1.175-.139-1.633-.417a2.808 2.808 0 0 1-1.052-1.176c-.244-.506-.367-1.094-.367-1.765 0-.67.123-1.261.367-1.772a2.888 2.888 0 0 1 1.031-1.202c.443-.29.96-.435 1.551-.435.341 0 .678.057 1.01.171.333.113.635.298.908.554.273.253.49.588.652 1.005.162.418.243.932.243 1.543v.426h-5.046v-.869h4.023c0-.369-.074-.699-.222-.989a1.663 1.663 0 0 0-.622-.686 1.746 1.746 0 0 0-.946-.251c-.4 0-.747.099-1.039.298a1.97 1.97 0 0 0-.67.767 2.254 2.254 0 0 0-.234 1.014v.58c0 .494.085.913.256 1.257.173.341.413.601.72.78.307.176.663.264 1.07.264.264 0 .502-.037.715-.111a1.54 1.54 0 0 0 .559-.341c.156-.153.277-.344.362-.571l.972.273a2.171 2.171 0 0 1-.516.869 2.52 2.52 0 0 1-.895.58 3.325 3.325 0 0 1-1.197.204Zm6.711 0c-.545 0-1.027-.137-1.444-.413-.418-.278-.745-.67-.981-1.176-.235-.509-.353-1.109-.353-1.803 0-.687.118-1.284.353-1.789.236-.506.564-.897.985-1.172.42-.276.906-.414 1.457-.414.426 0 .763.071 1.01.213.25.14.441.299.571.478.134.176.237.321.311.434h.086v-3.221h1.005V457h-.971v-1.006h-.12c-.074.12-.179.27-.315.452-.136.179-.331.34-.584.482-.253.139-.589.208-1.01.208Zm.137-.903c.403 0 .744-.105 1.022-.315.279-.213.49-.507.635-.882.145-.378.218-.814.218-1.309 0-.488-.071-.916-.214-1.282a1.862 1.862 0 0 0-.63-.861c-.279-.208-.622-.311-1.031-.311-.427 0-.782.109-1.066.328-.281.216-.493.51-.635.882a3.51 3.51 0 0 0-.209 1.244c0 .466.071.889.214 1.27.144.378.357.679.639.904.284.221.636.332 1.057.332Zm4.845.767v-6.545h1.005V457h-1.005Zm.511-7.636a.713.713 0 0 1-.507-.201.643.643 0 0 1-.209-.481c0-.188.07-.348.209-.482a.717.717 0 0 1 .507-.2c.196 0 .364.067.503.2a.639.639 0 0 1 .213.482.636.636 0 0 1-.213.481.7.7 0 0 1-.503.201Zm4.263 7.789c-.415 0-.792-.078-1.13-.234a1.94 1.94 0 0 1-.805-.686c-.199-.301-.298-.665-.298-1.091 0-.375.073-.679.221-.912.148-.236.345-.42.592-.554.248-.133.52-.233.819-.298.301-.068.603-.122.907-.162.398-.051.721-.09.968-.115.25-.029.431-.075.545-.141.117-.065.175-.179.175-.341v-.034c0-.42-.115-.747-.345-.98-.228-.233-.573-.349-1.036-.349-.48 0-.856.105-1.129.315-.273.21-.465.435-.575.673l-.955-.341c.171-.397.398-.707.682-.929.287-.224.599-.38.937-.468a3.896 3.896 0 0 1 1.006-.137c.21 0 .452.026.725.077.275.048.541.149.796.303.259.153.473.385.644.694.17.31.256.725.256 1.245V457h-1.006v-.886h-.051a1.77 1.77 0 0 1-.341.456 1.973 1.973 0 0 1-.635.413c-.264.114-.587.17-.967.17Zm.153-.903c.398 0 .733-.078 1.006-.234.275-.157.483-.358.622-.605.142-.248.213-.508.213-.78v-.921c-.043.051-.137.098-.281.141-.142.04-.307.075-.495.106a20.68 20.68 0 0 1-.963.128 3.91 3.91 0 0 0-.733.166 1.261 1.261 0 0 0-.545.337c-.137.148-.205.349-.205.605 0 .35.13.614.388.793.261.176.592.264.993.264Zm8.551.75h-1.108l3.205-8.727h1.091l3.204 8.727h-1.107l-2.608-7.347h-.069L822.512 457Zm.41-3.409h4.465v.937h-4.465v-.937Zm8.211-.529V457h-1.006v-6.545h.972v1.022h.085a1.88 1.88 0 0 1 .699-.801c.313-.204.716-.307 1.21-.307.444 0 .831.091 1.164.273.332.179.591.452.775.818.185.364.277.824.277 1.381V457h-1.005v-4.091c0-.514-.134-.915-.401-1.202-.267-.289-.633-.434-1.099-.434-.321 0-.608.069-.861.209-.25.139-.448.342-.593.609-.144.267-.217.591-.217.971Zm7.94 4.091c-.415 0-.791-.078-1.129-.234a1.942 1.942 0 0 1-.806-.686c-.198-.301-.298-.665-.298-1.091 0-.375.074-.679.222-.912.148-.236.345-.42.592-.554a3.12 3.12 0 0 1 .818-.298 10.1 10.1 0 0 1 .908-.162c.398-.051.72-.09.967-.115.25-.029.432-.075.546-.141.116-.065.174-.179.174-.341v-.034c0-.42-.115-.747-.345-.98-.227-.233-.572-.349-1.035-.349-.48 0-.857.105-1.129.315-.273.21-.465.435-.576.673l-.954-.341c.17-.397.397-.707.682-.929a2.55 2.55 0 0 1 .937-.468 3.89 3.89 0 0 1 1.006-.137 4 4 0 0 1 .724.077c.276.048.541.149.797.303.259.153.473.385.643.694.171.31.256.725.256 1.245V457h-1.006v-.886h-.051a1.748 1.748 0 0 1-.341.456c-.159.162-.37.299-.635.413-.264.114-.586.17-.967.17Zm.154-.903c.397 0 .733-.078 1.005-.234a1.597 1.597 0 0 0 .835-1.385v-.921c-.042.051-.136.098-.281.141a4.65 4.65 0 0 1-.494.106 21.302 21.302 0 0 1-.963.128c-.262.034-.506.09-.733.166a1.265 1.265 0 0 0-.546.337c-.136.148-.204.349-.204.605 0 .35.129.614.388.793.261.176.592.264.993.264Zm5.687-7.977V457h-1.005v-8.727h1.005Zm2.49 11.182c-.17 0-.322-.015-.456-.043a1.206 1.206 0 0 1-.277-.077l.256-.886c.244.062.46.085.648.068a.778.778 0 0 0 .498-.251c.148-.148.283-.388.405-.721l.187-.511-2.42-6.579h1.091l1.807 5.215h.068l1.807-5.215h1.091l-2.779 7.5c-.125.338-.28.617-.464.839a1.746 1.746 0 0 1-.644.499 1.98 1.98 0 0 1-.818.162Zm10.668-7.535-.903.256a1.713 1.713 0 0 0-.251-.439 1.22 1.22 0 0 0-.444-.358c-.187-.093-.427-.14-.72-.14-.4 0-.734.092-1.001.277-.264.181-.396.413-.396.694 0 .25.09.448.272.593.182.144.466.265.853.362l.971.238c.585.142 1.021.36 1.308.652.287.29.431.664.431 1.121 0 .375-.108.71-.324 1.006a2.153 2.153 0 0 1-.895.699c-.384.17-.83.255-1.338.255-.668 0-1.22-.145-1.658-.434-.437-.29-.714-.713-.831-1.27l.955-.239c.091.352.263.617.515.793.256.176.59.264 1.002.264.469 0 .841-.099 1.116-.298.279-.202.418-.443.418-.725a.763.763 0 0 0-.239-.571c-.159-.156-.403-.272-.733-.349l-1.091-.256c-.599-.142-1.039-.362-1.321-.66-.278-.302-.417-.678-.417-1.13 0-.369.104-.696.311-.98a2.12 2.12 0 0 1 .856-.669 3.01 3.01 0 0 1 1.236-.243c.648 0 1.157.142 1.526.426.372.285.636.66.792 1.125Zm1.634 5.08v-6.545h1.005V457h-1.005Zm.511-7.636a.713.713 0 0 1-.507-.201.643.643 0 0 1-.209-.481c0-.188.07-.348.209-.482a.717.717 0 0 1 .507-.2c.196 0 .364.067.503.2a.639.639 0 0 1 .213.482.636.636 0 0 1-.213.481.7.7 0 0 1-.503.201Zm6.973 2.556-.904.256a1.684 1.684 0 0 0-.251-.439 1.226 1.226 0 0 0-.443-.358c-.188-.093-.428-.14-.721-.14-.4 0-.734.092-1.001.277-.264.181-.396.413-.396.694 0 .25.091.448.272.593.182.144.466.265.853.362l.971.238c.586.142 1.022.36 1.309.652.286.29.43.664.43 1.121 0 .375-.108.71-.324 1.006a2.153 2.153 0 0 1-.895.699c-.383.17-.829.255-1.338.255-.667 0-1.22-.145-1.658-.434-.437-.29-.714-.713-.831-1.27l.955-.239c.091.352.263.617.516.793.255.176.589.264 1.001.264.469 0 .841-.099 1.117-.298.278-.202.417-.443.417-.725a.762.762 0 0 0-.238-.571c-.16-.156-.404-.272-.733-.349l-1.091-.256c-.6-.142-1.04-.362-1.321-.66-.279-.302-.418-.678-.418-1.13 0-.369.104-.696.311-.98.21-.284.496-.507.857-.669a3.001 3.001 0 0 1 1.235-.243c.648 0 1.157.142 1.526.426.372.285.636.66.793 1.125ZM767.057 348v-8.727h5.233v.937h-4.176v2.949h3.784v.938h-3.784V348h-1.057Zm6.906 0v-6.545h1.006V348h-1.006Zm.512-7.636a.713.713 0 0 1-.507-.201.64.64 0 0 1-.209-.481c0-.188.069-.348.209-.482a.717.717 0 0 1 .507-.2c.196 0 .363.067.503.2a.639.639 0 0 1 .213.482.636.636 0 0 1-.213.481.7.7 0 0 1-.503.201Zm3.342 3.698V348h-1.006v-6.545h.972v1.022h.085c.153-.332.386-.599.699-.801.312-.204.716-.307 1.21-.307.443 0 .831.091 1.163.273.333.179.591.452.776.818.185.364.277.824.277 1.381V348h-1.006v-4.091c0-.514-.133-.915-.4-1.202-.267-.289-.634-.434-1.1-.434-.321 0-.608.069-.861.209-.25.139-.447.342-.592.609-.145.267-.217.591-.217.971Zm7.94 4.091c-.415 0-.791-.078-1.13-.234a1.94 1.94 0 0 1-.805-.686c-.199-.301-.298-.665-.298-1.091 0-.375.074-.679.221-.912.148-.236.346-.42.593-.554a3.12 3.12 0 0 1 .818-.298 10.1 10.1 0 0 1 .908-.162c.397-.051.72-.09.967-.115.25-.029.432-.075.545-.141.117-.065.175-.179.175-.341v-.034c0-.42-.115-.747-.345-.98-.227-.233-.573-.349-1.036-.349-.48 0-.856.105-1.129.315-.273.21-.464.435-.575.673l-.955-.341c.171-.397.398-.707.682-.929.287-.224.6-.38.938-.468a3.888 3.888 0 0 1 1.005-.137c.211 0 .452.026.725.077.275.048.541.149.797.303.258.153.473.385.643.694.171.31.256.725.256 1.245V348h-1.006v-.886h-.051a1.77 1.77 0 0 1-.341.456 1.973 1.973 0 0 1-.635.413c-.264.114-.587.17-.967.17Zm.153-.903c.398 0 .733-.078 1.006-.234.275-.157.483-.358.622-.605.142-.248.213-.508.213-.78v-.921c-.043.051-.136.098-.281.141-.142.04-.307.075-.495.106a20.68 20.68 0 0 1-.963.128 3.91 3.91 0 0 0-.733.166 1.261 1.261 0 0 0-.545.337c-.136.148-.205.349-.205.605 0 .35.13.614.388.793.262.176.593.264.993.264Zm5.688-3.188V348h-1.006v-6.545h.972v1.022h.085a1.88 1.88 0 0 1 .699-.801c.313-.204.716-.307 1.21-.307.443 0 .831.091 1.164.273.332.179.591.452.775.818.185.364.277.824.277 1.381V348h-1.006v-4.091c0-.514-.133-.915-.4-1.202-.267-.289-.634-.434-1.1-.434-.321 0-.607.069-.86.209-.25.139-.448.342-.593.609-.145.267-.217.591-.217.971Zm8.673 4.074c-.614 0-1.142-.145-1.585-.434a2.837 2.837 0 0 1-1.023-1.198c-.239-.508-.358-1.089-.358-1.743 0-.664.122-1.251.367-1.76.247-.511.59-.91 1.031-1.197.443-.29.96-.435 1.551-.435.46 0 .875.086 1.244.256.37.17.672.409.908.716s.382.665.439 1.074h-1.006a1.56 1.56 0 0 0-.511-.793c-.262-.233-.614-.349-1.057-.349-.392 0-.736.102-1.031.307a1.986 1.986 0 0 0-.686.856c-.162.367-.243.797-.243 1.291 0 .506.079.946.238 1.321.162.375.39.666.682.874.296.207.642.311 1.04.311.261 0 .499-.045.712-.136.213-.091.393-.222.541-.392.148-.171.253-.375.315-.614h1.006a2.34 2.34 0 0 1-.422 1.044 2.364 2.364 0 0 1-.882.733c-.364.179-.787.268-1.27.268Zm4.044-.136v-6.545h1.006V348h-1.006Zm.511-7.636a.713.713 0 0 1-.507-.201.643.643 0 0 1-.209-.481c0-.188.07-.348.209-.482a.717.717 0 0 1 .507-.2c.196 0 .364.067.503.2a.639.639 0 0 1 .213.482.636.636 0 0 1-.213.481.7.7 0 0 1-.503.201Zm4.263 7.789c-.415 0-.791-.078-1.129-.234a1.936 1.936 0 0 1-.806-.686c-.199-.301-.298-.665-.298-1.091 0-.375.074-.679.221-.912.148-.236.346-.42.593-.554a3.12 3.12 0 0 1 .818-.298 10.1 10.1 0 0 1 .908-.162c.397-.051.72-.09.967-.115.25-.029.432-.075.545-.141.117-.065.175-.179.175-.341v-.034c0-.42-.115-.747-.345-.98-.227-.233-.573-.349-1.036-.349-.48 0-.856.105-1.129.315-.273.21-.464.435-.575.673l-.955-.341c.171-.397.398-.707.682-.929.287-.224.6-.38.938-.468a3.888 3.888 0 0 1 1.005-.137c.211 0 .452.026.725.077.275.048.541.149.797.303.258.153.473.385.643.694.171.31.256.725.256 1.245V348h-1.006v-.886h-.051a1.77 1.77 0 0 1-.341.456 1.973 1.973 0 0 1-.635.413c-.264.114-.587.17-.967.17Zm.153-.903c.398 0 .733-.078 1.006-.234.275-.157.483-.358.622-.605.142-.248.213-.508.213-.78v-.921c-.043.051-.136.098-.281.141a4.65 4.65 0 0 1-.494.106 21.368 21.368 0 0 1-.964.128 3.88 3.88 0 0 0-.732.166 1.259 1.259 0 0 0-.546.337c-.136.148-.204.349-.204.605 0 .35.129.614.387.793.262.176.593.264.993.264Zm5.688-7.977V348h-1.006v-8.727h1.006Zm6.41 0V348h-1.057v-8.727h1.057Zm2.988 4.789V348h-1.005v-6.545h.971v1.022h.086c.153-.332.386-.599.698-.801.313-.204.716-.307 1.211-.307.443 0 .831.091 1.163.273.332.179.591.452.776.818.184.364.277.824.277 1.381V348h-1.006v-4.091c0-.514-.134-.915-.401-1.202-.267-.289-.633-.434-1.099-.434-.321 0-.608.069-.861.209-.25.139-.447.342-.592.609-.145.267-.218.591-.218.971Zm8.861-2.607v.852h-3.392v-.852h3.392Zm-2.403-1.569h1.005v6.239c0 .284.041.497.124.639a.637.637 0 0 0 .324.281c.133.046.274.069.422.069.11 0 .201-.006.272-.017l.171-.035.204.904a2.178 2.178 0 0 1-.75.119c-.284 0-.562-.061-.835-.183a1.656 1.656 0 0 1-.673-.558c-.176-.25-.264-.566-.264-.946v-6.512Zm6.59 8.25c-.631 0-1.175-.139-1.632-.417a2.803 2.803 0 0 1-1.053-1.176c-.244-.506-.366-1.094-.366-1.765 0-.67.122-1.261.366-1.772a2.888 2.888 0 0 1 1.031-1.202c.443-.29.961-.435 1.551-.435.341 0 .678.057 1.01.171.333.113.635.298.908.554.273.253.49.588.652 1.005.162.418.243.932.243 1.543v.426h-5.046v-.869h4.023c0-.369-.074-.699-.221-.989a1.673 1.673 0 0 0-.623-.686 1.746 1.746 0 0 0-.946-.251c-.4 0-.747.099-1.039.298a1.96 1.96 0 0 0-.669.767 2.242 2.242 0 0 0-.235 1.014v.58c0 .494.085.913.256 1.257.173.341.413.601.72.78.307.176.663.264 1.07.264.264 0 .503-.037.716-.111.216-.077.402-.19.558-.341.156-.153.277-.344.362-.571l.972.273a2.16 2.16 0 0 1-.516.869c-.241.247-.54.441-.895.58a3.325 3.325 0 0 1-1.197.204Zm5.245-8.863V348h-1.005v-8.727h1.005Zm2.848 0V348h-1.006v-8.727h1.006Zm1.842 8.727v-6.545h1.006V348h-1.006Zm.511-7.636a.713.713 0 0 1-.507-.201.642.642 0 0 1-.208-.481c0-.188.069-.348.208-.482a.717.717 0 0 1 .507-.2c.196 0 .364.067.503.2a.639.639 0 0 1 .213.482.636.636 0 0 1-.213.481.7.7 0 0 1-.503.201Zm4.979 10.227c-.486 0-.904-.063-1.253-.188a2.674 2.674 0 0 1-.874-.485 2.64 2.64 0 0 1-.549-.64l.801-.562c.091.119.206.256.345.409.139.156.329.291.571.405.244.116.564.175.959.175.528 0 .964-.128 1.308-.384.344-.256.516-.656.516-1.202v-1.329h-.086a5.312 5.312 0 0 1-.315.443 1.787 1.787 0 0 1-.579.464c-.25.134-.589.201-1.015.201a2.73 2.73 0 0 1-1.423-.375 2.628 2.628 0 0 1-.993-1.091c-.241-.477-.362-1.057-.362-1.739 0-.67.118-1.254.354-1.751.235-.5.564-.887.984-1.159.42-.276.906-.414 1.457-.414.427 0 .765.071 1.015.213.252.14.446.299.579.478.136.176.242.321.315.434h.103v-1.039h.971v6.733c0 .562-.128 1.019-.383 1.372a2.18 2.18 0 0 1-1.023.779c-.426.168-.9.252-1.423.252Zm-.034-3.597c.403 0 .744-.092 1.022-.277.279-.184.49-.45.635-.797.145-.346.218-.761.218-1.244 0-.471-.071-.888-.213-1.248a1.872 1.872 0 0 0-.631-.848c-.278-.205-.622-.307-1.031-.307-.426 0-.782.108-1.066.324a1.966 1.966 0 0 0-.635.869 3.366 3.366 0 0 0-.208 1.21c0 .455.071.857.213 1.206.145.347.358.619.639.818.284.196.636.294 1.057.294Zm7.449 1.142c-.631 0-1.175-.139-1.633-.417a2.808 2.808 0 0 1-1.052-1.176c-.244-.506-.367-1.094-.367-1.765 0-.67.123-1.261.367-1.772a2.888 2.888 0 0 1 1.031-1.202c.443-.29.96-.435 1.551-.435.341 0 .678.057 1.01.171.333.113.635.298.908.554.273.253.49.588.652 1.005.162.418.243.932.243 1.543v.426h-5.046v-.869h4.023c0-.369-.074-.699-.222-.989a1.663 1.663 0 0 0-.622-.686 1.746 1.746 0 0 0-.946-.251c-.4 0-.747.099-1.039.298a1.97 1.97 0 0 0-.67.767 2.254 2.254 0 0 0-.234 1.014v.58c0 .494.085.913.256 1.257.173.341.413.601.72.78.307.176.663.264 1.07.264.264 0 .502-.037.715-.111a1.54 1.54 0 0 0 .559-.341c.156-.153.277-.344.362-.571l.972.273a2.171 2.171 0 0 1-.516.869 2.52 2.52 0 0 1-.895.58 3.325 3.325 0 0 1-1.197.204Zm5.245-4.074V348h-1.005v-6.545h.971v1.022h.085a1.88 1.88 0 0 1 .699-.801c.313-.204.716-.307 1.211-.307.443 0 .83.091 1.163.273.332.179.591.452.775.818.185.364.277.824.277 1.381V348h-1.005v-4.091c0-.514-.134-.915-.401-1.202-.267-.289-.633-.434-1.099-.434-.321 0-.608.069-.861.209-.25.139-.447.342-.592.609-.145.267-.218.591-.218.971Zm8.673 4.074c-.613 0-1.142-.145-1.585-.434a2.837 2.837 0 0 1-1.023-1.198c-.238-.508-.358-1.089-.358-1.743 0-.664.122-1.251.367-1.76.247-.511.591-.91 1.031-1.197.443-.29.96-.435 1.551-.435.46 0 .875.086 1.245.256.369.17.671.409.907.716s.382.665.439 1.074h-1.006a1.553 1.553 0 0 0-.511-.793c-.261-.233-.614-.349-1.057-.349-.392 0-.736.102-1.031.307a1.993 1.993 0 0 0-.686.856c-.162.367-.243.797-.243 1.291 0 .506.08.946.239 1.321.162.375.389.666.681.874a1.77 1.77 0 0 0 1.04.311c.262 0 .499-.045.712-.136.213-.091.393-.222.541-.392.148-.171.253-.375.315-.614h1.006a2.329 2.329 0 0 1-1.304 1.777c-.364.179-.787.268-1.27.268Zm6.789 0c-.631 0-1.175-.139-1.633-.417a2.808 2.808 0 0 1-1.052-1.176c-.244-.506-.367-1.094-.367-1.765 0-.67.123-1.261.367-1.772a2.888 2.888 0 0 1 1.031-1.202c.443-.29.96-.435 1.551-.435.341 0 .678.057 1.01.171.333.113.635.298.908.554.273.253.49.588.652 1.005.162.418.243.932.243 1.543v.426h-5.046v-.869h4.023c0-.369-.074-.699-.222-.989a1.663 1.663 0 0 0-.622-.686 1.746 1.746 0 0 0-.946-.251c-.4 0-.747.099-1.039.298a1.96 1.96 0 0 0-.669.767 2.242 2.242 0 0 0-.235 1.014v.58c0 .494.085.913.256 1.257.173.341.413.601.72.78.307.176.663.264 1.07.264.264 0 .502-.037.715-.111a1.54 1.54 0 0 0 .559-.341c.156-.153.277-.344.362-.571l.972.273a2.171 2.171 0 0 1-.516.869 2.52 2.52 0 0 1-.895.58 3.325 3.325 0 0 1-1.197.204ZM778.057 240v-8.727h5.267v.937h-4.21v2.949h3.937v.938h-3.937v2.965h4.278V240h-5.335Zm12.388-6.545L788.024 240h-1.023l-2.42-6.545h1.091l1.807 5.215h.068l1.807-5.215h1.091Zm3.837 6.681c-.631 0-1.175-.139-1.632-.417a2.803 2.803 0 0 1-1.053-1.176c-.244-.506-.366-1.094-.366-1.765 0-.67.122-1.261.366-1.772a2.883 2.883 0 0 1 1.032-1.202c.443-.29.96-.435 1.551-.435.341 0 .677.057 1.01.171.332.113.635.298.907.554.273.253.49.588.652 1.005.162.418.243.932.243 1.543v.426h-5.045v-.869h4.022c0-.369-.073-.699-.221-.989a1.67 1.67 0 0 0-.622-.686 1.749 1.749 0 0 0-.946-.251c-.401 0-.747.099-1.04.298a1.96 1.96 0 0 0-.669.767 2.254 2.254 0 0 0-.234 1.014v.58c0 .494.085.913.255 1.257.173.341.414.601.72.78.307.176.664.264 1.07.264.264 0 .503-.037.716-.111.216-.077.402-.19.558-.341.156-.153.277-.344.362-.571l.972.273a2.149 2.149 0 0 1-.516.869 2.502 2.502 0 0 1-.895.58 3.325 3.325 0 0 1-1.197.204Zm5.246-4.074V240h-1.006v-6.545h.972v1.022h.085c.153-.332.386-.599.699-.801.312-.204.716-.307 1.21-.307.443 0 .831.091 1.163.273.333.179.591.452.776.818.185.364.277.824.277 1.381V240h-1.006v-4.091c0-.514-.133-.915-.4-1.202-.267-.289-.634-.434-1.1-.434-.321 0-.608.069-.861.209-.25.139-.447.342-.592.609-.145.267-.217.591-.217.971Zm8.86-2.607v.852h-3.392v-.852h3.392Zm-2.403-1.569h1.005v6.239c0 .284.042.497.124.639a.637.637 0 0 0 .324.281c.133.046.274.069.422.069.111 0 .201-.006.272-.017l.171-.035.204.904a2.178 2.178 0 0 1-.75.119c-.284 0-.562-.061-.835-.183a1.656 1.656 0 0 1-.673-.558c-.176-.25-.264-.566-.264-.946v-6.512Zm7.427-.613h1.262l2.966 7.244h.102l2.966-7.244h1.261V240h-.989v-6.631h-.085L818.168 240h-.955l-2.727-6.631h-.085V240h-.989v-8.727Zm13.199 8.863c-.591 0-1.11-.14-1.556-.422a2.861 2.861 0 0 1-1.039-1.18c-.248-.506-.371-1.097-.371-1.773 0-.681.123-1.277.371-1.785.25-.509.596-.904 1.039-1.185.446-.281.965-.422 1.556-.422.591 0 1.108.141 1.551.422.446.281.793.676 1.04 1.185.25.508.375 1.104.375 1.785 0 .676-.125 1.267-.375 1.773a2.822 2.822 0 0 1-1.04 1.18c-.443.282-.96.422-1.551.422Zm0-.903c.449 0 .818-.115 1.108-.345.29-.23.504-.533.643-.908a3.48 3.48 0 0 0 .209-1.219c0-.437-.07-.845-.209-1.223a2.061 2.061 0 0 0-.643-.916c-.29-.233-.659-.349-1.108-.349-.449 0-.818.116-1.108.349-.29.233-.504.539-.644.916a3.518 3.518 0 0 0-.208 1.223c0 .438.069.844.208 1.219.14.375.354.678.644.908.29.23.659.345 1.108.345Zm5.507-3.171V240h-1.006v-6.545h.971v1.022h.086c.153-.332.386-.599.699-.801.312-.204.715-.307 1.21-.307.443 0 .831.091 1.163.273.333.179.591.452.776.818.184.364.277.824.277 1.381V240h-1.006v-4.091c0-.514-.134-.915-.401-1.202-.267-.289-.633-.434-1.099-.434-.321 0-.608.069-.861.209-.25.139-.447.342-.592.609-.145.267-.217.591-.217.971Zm6.013 3.938v-6.545h1.006V240h-1.006Zm.512-7.636a.713.713 0 0 1-.507-.201.64.64 0 0 1-.209-.481c0-.188.069-.348.209-.482a.717.717 0 0 1 .507-.2c.196 0 .363.067.503.2a.639.639 0 0 1 .213.482.636.636 0 0 1-.213.481.7.7 0 0 1-.503.201Zm5.183 1.091v.852h-3.392v-.852h3.392Zm-2.404-1.569h1.006v6.239c0 .284.041.497.123.639a.645.645 0 0 0 .324.281c.134.046.275.069.422.069.111 0 .202-.006.273-.017l.17-.035.205.904a2.156 2.156 0 0 1-.75.119c-.284 0-.563-.061-.835-.183a1.659 1.659 0 0 1-.674-.558c-.176-.25-.264-.566-.264-.946v-6.512Zm6.505 8.25c-.591 0-1.109-.14-1.555-.422a2.863 2.863 0 0 1-1.04-1.18c-.247-.506-.371-1.097-.371-1.773 0-.681.124-1.277.371-1.785.25-.509.597-.904 1.04-1.185.446-.281.964-.422 1.555-.422s1.108.141 1.551.422c.446.281.793.676 1.04 1.185.25.508.375 1.104.375 1.785 0 .676-.125 1.267-.375 1.773a2.822 2.822 0 0 1-1.04 1.18c-.443.282-.96.422-1.551.422Zm0-.903c.449 0 .818-.115 1.108-.345.29-.23.504-.533.644-.908.139-.375.208-.781.208-1.219 0-.437-.069-.845-.208-1.223a2.071 2.071 0 0 0-.644-.916c-.29-.233-.659-.349-1.108-.349-.449 0-.818.116-1.108.349-.29.233-.504.539-.643.916a3.518 3.518 0 0 0-.209 1.223c0 .438.07.844.209 1.219.139.375.353.678.643.908.29.23.659.345 1.108.345Zm4.501.767v-6.545h.972v.988h.068c.119-.324.335-.586.648-.788a1.904 1.904 0 0 1 1.057-.303 10.941 10.941 0 0 1 .528.017v1.023a3.308 3.308 0 0 0-.234-.038c-.12-.02-.246-.03-.38-.03-.318 0-.602.067-.852.2a1.468 1.468 0 0 0-.801 1.334V240h-1.006Zm4.465 0v-6.545h1.006V240h-1.006Zm.511-7.636a.713.713 0 0 1-.507-.201.642.642 0 0 1-.208-.481c0-.188.069-.348.208-.482a.717.717 0 0 1 .507-.2c.196 0 .364.067.503.2a.639.639 0 0 1 .213.482.636.636 0 0 1-.213.481.7.7 0 0 1-.503.201Zm3.342 3.698V240h-1.005v-6.545h.971v1.022h.086c.153-.332.386-.599.698-.801.313-.204.716-.307 1.211-.307.443 0 .831.091 1.163.273.332.179.591.452.776.818.184.364.277.824.277 1.381V240h-1.006v-4.091c0-.514-.134-.915-.401-1.202-.267-.289-.633-.434-1.099-.434-.321 0-.608.069-.861.209-.25.139-.447.342-.592.609-.145.267-.218.591-.218.971Zm8.656 6.529c-.485 0-.903-.063-1.252-.188a2.664 2.664 0 0 1-.874-.485 2.668 2.668 0 0 1-.55-.64l.801-.562c.091.119.206.256.346.409.139.156.329.291.571.405.244.116.563.175.958.175.529 0 .965-.128 1.309-.384.343-.256.515-.656.515-1.202v-1.329h-.085a5.56 5.56 0 0 1-.315.443 1.792 1.792 0 0 1-.58.464c-.25.134-.588.201-1.014.201a2.728 2.728 0 0 1-1.423-.375 2.628 2.628 0 0 1-.993-1.091c-.242-.477-.363-1.057-.363-1.739 0-.67.118-1.254.354-1.751.236-.5.564-.887.985-1.159.42-.276.906-.414 1.457-.414.426 0 .764.071 1.014.213.253.14.446.299.58.478.136.176.241.321.315.434h.102v-1.039h.972v6.733c0 .562-.128 1.019-.384 1.372a2.172 2.172 0 0 1-1.022.779 3.853 3.853 0 0 1-1.424.252Zm-.034-3.597c.404 0 .745-.092 1.023-.277.278-.184.49-.45.635-.797.145-.346.217-.761.217-1.244 0-.471-.071-.888-.213-1.248a1.87 1.87 0 0 0-.63-.848c-.279-.205-.623-.307-1.032-.307-.426 0-.781.108-1.065.324a1.966 1.966 0 0 0-.635.869 3.366 3.366 0 0 0-.209 1.21c0 .455.071.857.213 1.206.145.347.358.619.639.818.285.196.637.294 1.057.294ZM747.057 131v-8.727h1.057v7.789h4.056V131h-5.113Zm9.358.136c-.631 0-1.175-.139-1.632-.417a2.803 2.803 0 0 1-1.053-1.176c-.244-.506-.366-1.094-.366-1.765 0-.67.122-1.261.366-1.772a2.888 2.888 0 0 1 1.031-1.202c.444-.29.961-.435 1.551-.435.341 0 .678.057 1.01.171.333.113.635.298.908.554.273.253.49.588.652 1.005.162.418.243.932.243 1.543v.426h-5.045v-.869h4.022c0-.369-.074-.699-.221-.989a1.677 1.677 0 0 0-.622-.686 1.752 1.752 0 0 0-.947-.251c-.4 0-.747.099-1.039.298a1.96 1.96 0 0 0-.669.767 2.242 2.242 0 0 0-.235 1.014v.58c0 .494.086.913.256 1.257.173.341.413.601.72.78.307.176.664.264 1.07.264.264 0 .503-.037.716-.111.216-.077.402-.19.558-.341.156-.153.277-.344.362-.571l.972.273a2.16 2.16 0 0 1-.516.869c-.241.247-.54.441-.895.58a3.325 3.325 0 0 1-1.197.204Zm6.882 2.455c-.486 0-.904-.063-1.253-.188a2.674 2.674 0 0 1-.874-.485 2.64 2.64 0 0 1-.549-.64l.801-.562c.091.119.206.256.345.409.139.156.33.291.571.405.244.116.564.175.959.175.528 0 .964-.128 1.308-.384.344-.256.516-.656.516-1.202v-1.329h-.085a5.36 5.36 0 0 1-.316.443 1.787 1.787 0 0 1-.579.464c-.25.134-.588.201-1.015.201a2.733 2.733 0 0 1-1.423-.375 2.642 2.642 0 0 1-.993-1.091c-.241-.477-.362-1.057-.362-1.739 0-.67.118-1.254.354-1.751.236-.5.564-.887.984-1.159a2.595 2.595 0 0 1 1.457-.414c.427 0 .765.071 1.015.213.253.14.446.299.579.478.137.176.242.321.316.434h.102v-1.039h.971v6.733c0 .562-.127 1.019-.383 1.372a2.18 2.18 0 0 1-1.023.779c-.426.168-.9.252-1.423.252Zm-.034-3.597c.403 0 .744-.092 1.023-.277.278-.184.49-.45.634-.797.145-.346.218-.761.218-1.244 0-.471-.071-.888-.213-1.248a1.872 1.872 0 0 0-.631-.848c-.278-.205-.622-.307-1.031-.307-.426 0-.781.108-1.066.324a1.973 1.973 0 0 0-.635.869 3.366 3.366 0 0 0-.208 1.21c0 .455.071.857.213 1.206.145.347.358.619.639.818.284.196.636.294 1.057.294Zm6.63 1.159c-.414 0-.791-.078-1.129-.234a1.94 1.94 0 0 1-.805-.686c-.199-.301-.298-.665-.298-1.091 0-.375.073-.679.221-.912.148-.236.345-.42.592-.554.248-.133.52-.233.819-.298.301-.068.603-.122.907-.162.398-.051.72-.09.968-.115.25-.029.431-.075.545-.141.117-.065.175-.179.175-.341v-.034c0-.42-.115-.747-.345-.98-.228-.233-.573-.349-1.036-.349-.48 0-.856.105-1.129.315-.273.21-.465.435-.575.673l-.955-.341c.17-.397.398-.707.682-.929.287-.224.599-.38.937-.468a3.89 3.89 0 0 1 1.006-.137c.21 0 .452.026.724.077.276.048.542.149.797.303.259.153.473.385.644.694.17.31.255.725.255 1.245V131h-1.005v-.886h-.051a1.794 1.794 0 0 1-.341.456 1.973 1.973 0 0 1-.635.413c-.264.114-.587.17-.968.17Zm.154-.903c.398 0 .733-.078 1.006-.234.275-.157.483-.358.622-.605.142-.248.213-.508.213-.78v-.921c-.043.051-.137.098-.281.141-.143.04-.307.075-.495.106a20.68 20.68 0 0 1-.963.128c-.261.034-.506.09-.733.166a1.261 1.261 0 0 0-.545.337c-.137.148-.205.349-.205.605 0 .35.129.614.388.793.261.176.592.264.993.264Zm5.688-7.977V131h-1.006v-8.727h1.006Zm7.688 8.846c-.574 0-1.068-.105-1.483-.315a2.329 2.329 0 0 1-.958-.865 2.356 2.356 0 0 1-.337-1.257c0-.364.077-.686.23-.968a2.98 2.98 0 0 1 .643-.788c.276-.244.593-.488.951-.733l1.261-.937c.247-.162.445-.336.592-.52.151-.185.226-.426.226-.725 0-.221-.098-.436-.294-.643-.193-.207-.447-.311-.763-.311-.221 0-.417.057-.588.17a1.224 1.224 0 0 0-.396.426 1.084 1.084 0 0 0-.141.529c0 .204.056.412.167.622.113.207.257.42.43.639.176.216.358.438.546.665l4.005 4.892h-1.21l-3.307-3.989-.835-1.005a4.782 4.782 0 0 1-.597-.891 2.087 2.087 0 0 1-.221-.95c0-.392.086-.736.26-1.031a1.81 1.81 0 0 1 .737-.695c.318-.168.69-.251 1.116-.251.438 0 .814.085 1.13.255.315.168.558.391.728.669.171.276.256.576.256.899 0 .418-.104.78-.311 1.087-.207.307-.49.592-.848.857l-1.739 1.295c-.392.29-.657.571-.797.844-.139.272-.208.468-.208.588 0 .273.071.527.213.763.142.235.342.426.601.571.258.145.561.217.907.217.33 0 .651-.07.963-.209a2.7 2.7 0 0 0 .848-.613 2.92 2.92 0 0 0 .605-.964c.151-.375.226-.796.226-1.265h.972c0 .579-.067 1.052-.2 1.419-.134.366-.285.653-.452.861a6.402 6.402 0 0 1-.405.464 2.086 2.086 0 0 0-.094.128 1.72 1.72 0 0 1-.093.128 2.59 2.59 0 0 1-1.066.707c-.429.154-.852.23-1.27.23Zm8.716-.119v-8.727h2.949c.682 0 1.241.116 1.679.349.437.23.761.547.971.95.211.404.316.863.316 1.377s-.105.97-.316 1.368a2.22 2.22 0 0 1-.967.937c-.435.225-.99.337-1.666.337h-2.387v-.955h2.353c.466 0 .841-.068 1.125-.204.287-.137.494-.33.622-.58a1.94 1.94 0 0 0 .196-.903c0-.35-.065-.655-.196-.916a1.336 1.336 0 0 0-.627-.605c-.287-.145-.666-.218-1.137-.218h-1.858V131h-1.057Zm4.108-3.92 2.148 3.92h-1.228l-2.113-3.92h1.193Zm6.105 4.056c-.63 0-1.174-.139-1.632-.417a2.808 2.808 0 0 1-1.052-1.176c-.245-.506-.367-1.094-.367-1.765 0-.67.122-1.261.367-1.772a2.888 2.888 0 0 1 1.031-1.202c.443-.29.96-.435 1.551-.435.341 0 .678.057 1.01.171.332.113.635.298.908.554.272.253.49.588.652 1.005.162.418.242.932.242 1.543v.426h-5.045v-.869h4.023c0-.369-.074-.699-.222-.989a1.67 1.67 0 0 0-.622-.686 1.746 1.746 0 0 0-.946-.251c-.401 0-.747.099-1.04.298a1.96 1.96 0 0 0-.669.767 2.254 2.254 0 0 0-.234 1.014v.58c0 .494.085.913.255 1.257.174.341.414.601.721.78.306.176.663.264 1.069.264.264 0 .503-.037.716-.111.216-.077.402-.19.558-.341a1.55 1.55 0 0 0 .363-.571l.971.273a2.158 2.158 0 0 1-.515.869 2.52 2.52 0 0 1-.895.58 3.33 3.33 0 0 1-1.198.204Zm6.882 2.455c-.485 0-.903-.063-1.252-.188a2.664 2.664 0 0 1-.874-.485 2.668 2.668 0 0 1-.55-.64l.801-.562c.091.119.206.256.346.409.139.156.329.291.571.405.244.116.563.175.958.175.529 0 .965-.128 1.309-.384.343-.256.515-.656.515-1.202v-1.329h-.085a5.56 5.56 0 0 1-.315.443 1.792 1.792 0 0 1-.58.464c-.25.134-.588.201-1.014.201a2.73 2.73 0 0 1-1.423-.375 2.628 2.628 0 0 1-.993-1.091c-.242-.477-.362-1.057-.362-1.739 0-.67.117-1.254.353-1.751.236-.5.564-.887.985-1.159.42-.276.906-.414 1.457-.414.426 0 .764.071 1.014.213.253.14.446.299.58.478.136.176.241.321.315.434h.102v-1.039h.972v6.733c0 .562-.128 1.019-.384 1.372a2.172 2.172 0 0 1-1.022.779 3.853 3.853 0 0 1-1.424.252Zm-.034-3.597c.404 0 .745-.092 1.023-.277.278-.184.49-.45.635-.797.145-.346.217-.761.217-1.244 0-.471-.071-.888-.213-1.248a1.87 1.87 0 0 0-.63-.848c-.279-.205-.623-.307-1.032-.307-.426 0-.781.108-1.065.324a1.966 1.966 0 0 0-.635.869 3.366 3.366 0 0 0-.209 1.21c0 .455.071.857.213 1.206.145.347.358.619.639.818.285.196.637.294 1.057.294Zm8.83-1.67v-3.869h1.006V131h-1.006v-1.108h-.068a2.154 2.154 0 0 1-.716.848c-.324.23-.733.345-1.228.345-.409 0-.772-.089-1.09-.268a1.873 1.873 0 0 1-.75-.818c-.182-.367-.273-.829-.273-1.385v-4.159h1.006v4.09c0 .478.133.858.4 1.143.27.284.614.426 1.031.426.25 0 .505-.064.763-.192.261-.128.48-.324.656-.588.179-.264.269-.601.269-1.01Zm3.853-6.051V131h-1.006v-8.727h1.006Zm3.768 8.88c-.414 0-.791-.078-1.129-.234a1.933 1.933 0 0 1-.805-.686c-.199-.301-.299-.665-.299-1.091 0-.375.074-.679.222-.912.148-.236.345-.42.592-.554a3.12 3.12 0 0 1 .818-.298c.302-.068.604-.122.908-.162.398-.051.72-.09.967-.115.25-.029.432-.075.546-.141.116-.065.175-.179.175-.341v-.034c0-.42-.115-.747-.346-.98-.227-.233-.572-.349-1.035-.349-.48 0-.857.105-1.129.315-.273.21-.465.435-.576.673l-.954-.341c.17-.397.398-.707.682-.929.287-.224.599-.38.937-.468a3.89 3.89 0 0 1 1.006-.137c.21 0 .452.026.724.077.276.048.541.149.797.303.259.153.473.385.644.694.17.31.255.725.255 1.245V131h-1.005v-.886h-.052a1.764 1.764 0 0 1-.34.456c-.16.162-.371.299-.635.413-.265.114-.587.17-.968.17Zm.154-.903c.397 0 .733-.078 1.005-.234.276-.157.483-.358.623-.605.142-.248.213-.508.213-.78v-.921c-.043.051-.137.098-.282.141-.142.04-.306.075-.494.106a21.302 21.302 0 0 1-.963.128c-.261.034-.506.09-.733.166a1.261 1.261 0 0 0-.545.337c-.137.148-.205.349-.205.605 0 .35.129.614.388.793.261.176.592.264.993.264Zm7.528-5.795v.852h-3.392v-.852h3.392Zm-2.403-1.569h1.006v6.239c0 .284.041.497.123.639a.641.641 0 0 0 .324.281c.134.046.274.069.422.069.111 0 .202-.006.273-.017l.17-.035.205.904a2.2 2.2 0 0 1-.75.119c-.284 0-.563-.061-.835-.183a1.659 1.659 0 0 1-.674-.558c-.176-.25-.264-.566-.264-.946v-6.512Zm6.505 8.25c-.591 0-1.109-.14-1.555-.422a2.856 2.856 0 0 1-1.04-1.18c-.247-.506-.371-1.097-.371-1.773 0-.681.124-1.277.371-1.785.25-.509.596-.904 1.04-1.185.446-.281.964-.422 1.555-.422s1.108.141 1.551.422c.446.281.793.676 1.04 1.185.25.508.375 1.104.375 1.785 0 .676-.125 1.267-.375 1.773a2.822 2.822 0 0 1-1.04 1.18c-.443.282-.96.422-1.551.422Zm0-.903c.449 0 .818-.115 1.108-.345.29-.23.504-.533.643-.908.14-.375.209-.781.209-1.219 0-.437-.069-.845-.209-1.223a2.061 2.061 0 0 0-.643-.916c-.29-.233-.659-.349-1.108-.349-.449 0-.818.116-1.108.349-.29.233-.504.539-.643.916-.14.378-.209.786-.209 1.223 0 .438.069.844.209 1.219.139.375.353.678.643.908.29.23.659.345 1.108.345Zm4.501.767v-6.545h.972v.988h.068c.119-.324.335-.586.648-.788a1.9 1.9 0 0 1 1.056-.303 10.785 10.785 0 0 1 .529.017v1.023a3.27 3.27 0 0 0-.235-.038 2.284 2.284 0 0 0-.379-.03c-.318 0-.602.067-.852.2a1.468 1.468 0 0 0-.801 1.334V131h-1.006Zm5.312 2.455c-.171 0-.323-.015-.456-.043a1.19 1.19 0 0 1-.277-.077l.256-.886c.244.062.46.085.647.068a.778.778 0 0 0 .499-.251c.148-.148.283-.388.405-.721l.187-.511-2.42-6.579h1.091l1.807 5.215h.068l1.807-5.215h1.09l-2.778 7.5c-.125.338-.28.617-.464.839-.185.224-.4.391-.644.499a1.98 1.98 0 0 1-.818.162Zm9.066-10.245v-.937h6.545v.937h-2.744V131h-1.057v-7.79h-2.744Zm7.36 7.79v-6.545h.972v.988h.068c.119-.324.335-.586.648-.788a1.904 1.904 0 0 1 1.057-.303 10.862 10.862 0 0 1 .528.017v1.023a3.308 3.308 0 0 0-.234-.038c-.12-.02-.246-.03-.38-.03-.318 0-.602.067-.852.2a1.468 1.468 0 0 0-.801 1.334V131h-1.006Zm6.391.153c-.414 0-.791-.078-1.129-.234a1.94 1.94 0 0 1-.805-.686c-.199-.301-.299-.665-.299-1.091 0-.375.074-.679.222-.912.148-.236.345-.42.592-.554a3.12 3.12 0 0 1 .818-.298c.302-.068.604-.122.908-.162.398-.051.72-.09.967-.115.25-.029.432-.075.546-.141.116-.065.175-.179.175-.341v-.034c0-.42-.115-.747-.346-.98-.227-.233-.572-.349-1.035-.349-.48 0-.857.105-1.129.315-.273.21-.465.435-.576.673l-.954-.341c.17-.397.398-.707.682-.929.287-.224.599-.38.937-.468a3.89 3.89 0 0 1 1.006-.137c.21 0 .452.026.724.077.276.048.542.149.797.303.259.153.473.385.644.694.17.31.255.725.255 1.245V131h-1.005v-.886h-.051a1.794 1.794 0 0 1-.341.456 1.973 1.973 0 0 1-.635.413c-.265.114-.587.17-.968.17Zm.154-.903c.397 0 .733-.078 1.005-.234.276-.157.483-.358.623-.605.142-.248.213-.508.213-.78v-.921c-.043.051-.137.098-.282.141-.142.04-.306.075-.494.106a21.302 21.302 0 0 1-.963.128c-.261.034-.506.09-.733.166a1.261 1.261 0 0 0-.545.337c-.137.148-.205.349-.205.605 0 .35.129.614.388.793.261.176.592.264.993.264Zm7.341.886c-.614 0-1.142-.145-1.585-.434a2.837 2.837 0 0 1-1.023-1.198c-.239-.508-.358-1.089-.358-1.743 0-.664.122-1.251.367-1.76.247-.511.59-.91 1.031-1.197.443-.29.96-.435 1.551-.435.46 0 .875.086 1.244.256.37.17.672.409.908.716s.382.665.439 1.074h-1.006a1.56 1.56 0 0 0-.511-.793c-.262-.233-.614-.349-1.057-.349-.392 0-.736.102-1.031.307a1.986 1.986 0 0 0-.686.856c-.162.367-.243.797-.243 1.291 0 .506.079.946.238 1.321.162.375.39.666.682.874.296.207.642.311 1.04.311.261 0 .499-.045.712-.136.213-.091.393-.222.541-.392.148-.171.253-.375.315-.614h1.006a2.34 2.34 0 0 1-.422 1.044 2.364 2.364 0 0 1-.882.733c-.364.179-.787.268-1.27.268Zm4.982-2.522-.017-1.245h.204l2.864-2.914h1.244l-3.051 3.085h-.085l-1.159 1.074Zm-.938 2.386v-8.727h1.006V131h-1.006Zm4.159 0-2.557-3.239.716-.699 3.12 3.938h-1.279Zm2.368 0v-6.545h1.006V131h-1.006Zm.512-7.636a.713.713 0 0 1-.507-.201.64.64 0 0 1-.209-.481c0-.188.069-.348.209-.482a.717.717 0 0 1 .507-.2c.196 0 .363.067.503.2a.639.639 0 0 1 .213.482.636.636 0 0 1-.213.481.7.7 0 0 1-.503.201Zm3.342 3.698V131h-1.006v-6.545h.972v1.022h.085c.153-.332.386-.599.699-.801.312-.204.716-.307 1.21-.307.443 0 .831.091 1.163.273.333.179.591.452.776.818.185.364.277.824.277 1.381V131h-1.006v-4.091c0-.514-.133-.915-.4-1.202-.267-.289-.634-.434-1.1-.434-.321 0-.608.069-.861.209-.25.139-.447.342-.592.609-.145.267-.217.591-.217.971Zm8.656 6.529c-.486 0-.904-.063-1.253-.188a2.664 2.664 0 0 1-.874-.485 2.668 2.668 0 0 1-.55-.64l.802-.562c.091.119.206.256.345.409.139.156.329.291.571.405.244.116.564.175.959.175.528 0 .964-.128 1.308-.384.344-.256.515-.656.515-1.202v-1.329h-.085a5.56 5.56 0 0 1-.315.443 1.792 1.792 0 0 1-.58.464c-.25.134-.588.201-1.014.201a2.73 2.73 0 0 1-1.423-.375 2.628 2.628 0 0 1-.993-1.091c-.241-.477-.362-1.057-.362-1.739 0-.67.118-1.254.353-1.751.236-.5.564-.887.985-1.159.42-.276.906-.414 1.457-.414.426 0 .764.071 1.014.213.253.14.446.299.58.478.136.176.241.321.315.434h.103v-1.039h.971v6.733c0 .562-.128 1.019-.383 1.372a2.18 2.18 0 0 1-1.023.779 3.851 3.851 0 0 1-1.423.252Zm-.034-3.597c.403 0 .744-.092 1.022-.277.279-.184.49-.45.635-.797.145-.346.218-.761.218-1.244 0-.471-.071-.888-.214-1.248a1.87 1.87 0 0 0-.63-.848c-.279-.205-.622-.307-1.031-.307-.427 0-.782.108-1.066.324a1.966 1.966 0 0 0-.635.869 3.366 3.366 0 0 0-.209 1.21c0 .455.071.857.214 1.206.144.347.357.619.639.818.284.196.636.294 1.057.294Z"/><path fill="#000" d="m232.641 164.134-8.591-7.808a1.248 1.248 0 0 0-.398-.241 1.34 1.34 0 0 0-.47-.085h-14.727c-.651 0-1.276.235-1.736.653-.46.419-.719.986-.719 1.578v24.538c0 .592.259 1.159.719 1.578.46.418 1.085.653 1.736.653h22.09c.651 0 1.276-.235 1.736-.653.46-.419.719-.986.719-1.578v-17.846a1.04 1.04 0 0 0-.093-.427 1.127 1.127 0 0 0-.266-.362Zm-8.232-4.326 4.401 4h-4.401v-4Zm6.136 22.961h-22.09v-24.538h13.5v6.692c0 .296.129.58.359.789.23.209.542.326.868.326h7.363v16.731Zm-6.986-6.811a4.648 4.648 0 0 0 .772-3.516c-.227-1.219-.94-2.318-2.003-3.089-1.063-.771-2.401-1.159-3.759-1.09-1.357.069-2.639.59-3.601 1.464-.962.874-1.535 2.039-1.611 3.273-.076 1.234.351 2.451 1.199 3.417.848.965 2.058 1.614 3.399 1.82a5.99 5.99 0 0 0 3.869-.702l1.717 1.562c.114.103.249.186.398.242a1.34 1.34 0 0 0 .94 0 1.25 1.25 0 0 0 .398-.242 1.13 1.13 0 0 0 .267-.362 1.036 1.036 0 0 0 0-.854 1.11 1.11 0 0 0-.267-.362l-1.718-1.561Zm-7.741-2.67c0-.551.18-1.09.517-1.549a3.03 3.03 0 0 1 1.377-1.027 3.353 3.353 0 0 1 1.773-.158 3.17 3.17 0 0 1 1.571.763c.429.39.721.887.84 1.427a2.56 2.56 0 0 1-.175 1.612 2.86 2.86 0 0 1-1.13 1.251 3.297 3.297 0 0 1-1.705.47 3.23 3.23 0 0 1-2.169-.817c-.576-.523-.899-1.232-.899-1.972Zm623.106 4.915-4.286-11.25a1.11 1.11 0 0 0-.494-.577 1.025 1.025 0 0 0-.733-.103l-8.34 1.946v-3.094a1.15 1.15 0 0 0-.313-.795A1.048 1.048 0 0 0 824 164c-.284 0-.557.119-.758.33a1.15 1.15 0 0 0-.313.795v3.597l-8.805 2.055c-.17.039-.328.121-.46.239a1.123 1.123 0 0 0-.302.437v.009l-4.286 11.241a1.167 1.167 0 0 0-.076.422c0 3.278 3.287 4.5 5.357 4.5 2.071 0 5.357-1.222 5.357-4.5a1.167 1.167 0 0 0-.076-.422l-3.818-10.017 7.109-1.655v17.719h-2.143c-.284 0-.557.119-.758.33-.201.21-.314.497-.314.795 0 .298.113.585.314.795.201.211.474.33.758.33h6.428c.284 0 .557-.119.758-.33.201-.21.314-.497.314-.795 0-.298-.113-.585-.314-.795a1.048 1.048 0 0 0-.758-.33h-2.143v-18.222l6.831-1.592-3.54 9.267a1.167 1.167 0 0 0-.076.422c0 3.278 3.286 4.5 5.357 4.5 2.07 0 5.357-1.222 5.357-4.5a1.167 1.167 0 0 0-.076-.422Zm-24.567 7.172c-1.008 0-3.048-.508-3.205-2.059l3.205-8.412 3.205 8.412c-.157 1.551-2.196 2.059-3.205 2.059Zm19.286-4.5c-1.009 0-3.048-.508-3.205-2.059l3.205-8.412 3.205 8.412c-.157 1.551-2.197 2.059-3.205 2.059ZM208 278.25h3v9h-2a.946.946 0 0 0-.707.329 1.198 1.198 0 0 0-.293.796c0 .298.105.584.293.795.187.211.442.33.707.33h24c.265 0 .52-.119.707-.33.188-.211.293-.497.293-.795 0-.299-.105-.585-.293-.796a.946.946 0 0 0-.707-.329h-2v-9h3a.939.939 0 0 0 .603-.228c.173-.148.299-.356.358-.591a1.261 1.261 0 0 0-.03-.715 1.103 1.103 0 0 0-.407-.549l-13-9A.92.92 0 0 0 221 267a.92.92 0 0 0-.524.167l-13 9a1.103 1.103 0 0 0-.407.549 1.261 1.261 0 0 0-.03.715c.059.235.185.443.358.591a.939.939 0 0 0 .603.228Zm5 0h4v9h-4v-9Zm10 0v9h-4v-9h4Zm6 9h-4v-9h4v9Zm-8-17.805 9.468 6.555h-18.936l9.468-6.555Zm15 23.43c0 .298-.105.585-.293.795a.947.947 0 0 1-.707.33h-28a.947.947 0 0 1-.707-.33 1.195 1.195 0 0 1-.293-.795 1.2 1.2 0 0 1 .293-.796.946.946 0 0 1 .707-.329h28c.265 0 .52.118.707.329a1.2 1.2 0 0 1 .293.796Zm604 4.898c0 .325-.122.637-.338.868a1.12 1.12 0 0 1-.816.359h-27.692c-.306 0-.6-.129-.816-.359a1.273 1.273 0 0 1-.338-.868v-24.546c0-.325.122-.637.338-.868.216-.23.51-.359.816-.359.306 0 .599.129.816.359.216.231.338.543.338.868v16.674l7.26-7.724c.107-.114.235-.204.375-.266a1.09 1.09 0 0 1 .883 0c.141.062.268.152.375.266l3.799 4.042 7.6-8.083h-2.985c-.306 0-.599-.129-.816-.359a1.268 1.268 0 0 1-.337-.868c0-.325.121-.638.337-.868.217-.23.51-.359.816-.359h5.77c.306 0 .599.129.816.359.216.23.337.543.337.868v6.136c0 .326-.121.638-.337.868-.217.23-.51.36-.816.36-.306 0-.6-.13-.816-.36a1.264 1.264 0 0 1-.338-.868v-3.174l-8.415 8.952a1.153 1.153 0 0 1-.374.266 1.09 1.09 0 0 1-.884 0 1.153 1.153 0 0 1-.374-.266l-3.799-4.042-8.077 8.59v3.174h26.538c.306 0 .6.13.816.36.216.23.338.542.338.868Zm.5-28.773c-.692 0-1.369.205-1.944.59a3.495 3.495 0 0 0-1.489 3.593 3.505 3.505 0 0 0 2.75 2.75 3.495 3.495 0 0 0 3.593-1.489 3.494 3.494 0 0 0-.436-4.418A3.504 3.504 0 0 0 840.5 269Zm0 6.462a2.96 2.96 0 0 1-2.094-5.056 2.964 2.964 0 0 1 5.056 2.094 2.966 2.966 0 0 1-2.962 2.962Zm1.346-2.289a.939.939 0 0 1-.942.942h-.135v.27a.268.268 0 0 1-.269.269.27.27 0 0 1-.269-.269v-.27h-.539a.27.27 0 0 1-.269-.269c0-.071.028-.14.079-.19a.266.266 0 0 1 .19-.079h1.212a.404.404 0 0 0 0-.808h-.808a.94.94 0 0 1-.666-1.608.94.94 0 0 1 .666-.276h.135v-.27a.268.268 0 0 1 .269-.269.27.27 0 0 1 .269.269v.27h.539a.27.27 0 0 1 .269.269c0 .071-.028.14-.079.19a.266.266 0 0 1-.19.079h-1.212a.404.404 0 0 0 0 .808h.808a.94.94 0 0 1 .942.942Zm-20.882 117.825a1.1 1.1 0 0 0 .422-.38.963.963 0 0 0 .155-.519v-9.347a.95.95 0 0 0-.132-.475 1.076 1.076 0 0 0-.358-.368 1.243 1.243 0 0 0-.507-.18 1.284 1.284 0 0 0-.541.05c-3.368 1.073-6.201 3.191-7.989 5.975-1.788 2.784-2.413 6.051-1.764 9.212.033.164.11.318.224.449.113.131.26.236.428.306a1.257 1.257 0 0 0 1.06-.043l9.002-4.68Zm-1.731-8.672v7.173l-6.907 3.586c-.018-.196-.018-.393-.018-.585.002-2.105.65-4.169 1.872-5.964 1.221-1.795 2.97-3.252 5.053-4.21Zm5.77-3.326c-.306 0-.6.109-.816.304a.987.987 0 0 0-.338.734v11.919l-11.369 5.96c-.132.069-.247.16-.34.27a.95.95 0 0 0-.074 1.158c1.332 2.038 3.237 3.726 5.522 4.894a16.322 16.322 0 0 0 7.499 1.761 16.303 16.303 0 0 0 7.476-1.842c2.269-1.193 4.151-2.901 5.456-4.953 1.305-2.053 1.988-4.378 1.981-6.743-.007-2.365-.705-4.686-2.023-6.732-1.318-2.046-3.21-3.745-5.487-4.926a16.31 16.31 0 0 0-7.487-1.804Zm0 24.923a13.936 13.936 0 0 1-5.792-1.266c-1.792-.828-3.342-2.026-4.521-3.495l10.894-5.712a1.1 1.1 0 0 0 .422-.379.954.954 0 0 0 .155-.519v-11.428c3.255.265 6.271 1.651 8.42 3.867 2.148 2.216 3.264 5.093 3.115 8.031-.15 2.938-1.553 5.711-3.917 7.741-2.364 2.031-5.508 3.163-8.776 3.16ZM214.714 499.8c0-.358.113-.701.314-.955.201-.253.474-.395.758-.395H226.5c.284 0 .557.142.758.395.201.254.313.597.313.955s-.112.701-.313.955c-.201.253-.474.395-.758.395h-10.714c-.284 0-.557-.142-.758-.395a1.549 1.549 0 0 1-.314-.955Zm1.072 6.75H226.5c.284 0 .557-.142.758-.395.201-.254.313-.597.313-.955s-.112-.701-.313-.955c-.201-.253-.474-.395-.758-.395h-10.714c-.284 0-.557.142-.758.395a1.549 1.549 0 0 0-.314.955c0 .358.113.701.314.955.201.253.474.395.758.395ZM234 491.7v20.25c0 1.074-.339 2.104-.941 2.864-.603.759-1.421 1.186-2.273 1.186h-23.572c-.85 0-1.665-.424-2.267-1.18-.603-.755-.943-1.781-.947-2.851V495.75c0-.358.113-.701.314-.955.201-.253.473-.395.757-.395.285 0 .557.142.758.395.201.254.314.597.314.955v16.2c0 .358.113.701.314.955.201.253.473.395.757.395.284 0 .557-.142.758-.395.201-.254.314-.597.314-.955V491.7c0-.716.225-1.403.627-1.909.402-.507.947-.791 1.516-.791h21.428c.568 0 1.114.284 1.515.791.402.506.628 1.193.628 1.909Zm-2.143 0h-21.428v20.25c0 .46-.062.917-.184 1.35h20.541c.284 0 .556-.142.757-.395.201-.254.314-.597.314-.955V491.7Zm594.02 18.144a1.151 1.151 0 0 0-.876-.41 1.139 1.139 0 0 0-.876.41l-6.924 8.218a1.19 1.19 0 0 0-.172 1.254c.092.204.24.377.425.498.186.122.402.186.623.186h13.846c.221 0 .437-.064.623-.186a1.19 1.19 0 0 0 .253-1.752l-6.922-8.218Zm-5.292 7.808 4.415-5.24 4.415 5.24h-8.83ZM840 496.522v16.435c0 .934-.365 1.829-1.014 2.49a3.432 3.432 0 0 1-2.448 1.031h-1.153c-.306 0-.6-.123-.816-.344a1.18 1.18 0 0 1-.338-.83c0-.311.121-.61.338-.83.216-.22.51-.344.816-.344h1.153c.306 0 .6-.123.816-.343.217-.221.338-.519.338-.83v-16.435c0-.312-.121-.61-.338-.83a1.144 1.144 0 0 0-.816-.344h-23.076c-.306 0-.6.124-.816.344a1.18 1.18 0 0 0-.338.83v16.435c0 .311.121.609.338.83.216.22.51.343.816.343h1.153c.306 0 .6.124.816.344.217.22.338.519.338.83 0 .312-.121.61-.338.83a1.14 1.14 0 0 1-.816.344h-1.153a3.432 3.432 0 0 1-2.448-1.031 3.554 3.554 0 0 1-1.014-2.49v-16.435c0-.934.365-1.83 1.014-2.491a3.432 3.432 0 0 1 2.448-1.031h23.076c.919 0 1.799.371 2.448 1.031a3.557 3.557 0 0 1 1.014 2.491Zm-15.278 112.211a7.456 7.456 0 0 0 2.768-3.705c.52-1.514.56-3.163.115-4.703a7.497 7.497 0 0 0-2.583-3.848 6.945 6.945 0 0 0-4.265-1.477 6.942 6.942 0 0 0-4.264 1.477 7.497 7.497 0 0 0-2.583 3.848 7.83 7.83 0 0 0 .114 4.703 7.458 7.458 0 0 0 2.769 3.705c-2.313.893-4.288 2.545-5.631 4.71a1.042 1.042 0 0 0 .003 1.119c.071.11.162.203.268.276a.929.929 0 0 0 1.327-.303 9.718 9.718 0 0 1 3.448-3.336 9.197 9.197 0 0 1 4.549-1.21 9.2 9.2 0 0 1 4.55 1.21 9.726 9.726 0 0 1 3.448 3.336.953.953 0 0 0 .601.421.92.92 0 0 0 .711-.142c.21-.144.358-.368.411-.624a1.041 1.041 0 0 0-.126-.747c-1.342-2.165-3.317-3.817-5.63-4.71Zm-9.211-6.236c0-1.087.308-2.149.884-3.053a5.308 5.308 0 0 1 2.355-2.024 5.024 5.024 0 0 1 3.031-.313 5.18 5.18 0 0 1 2.686 1.504 5.578 5.578 0 0 1 1.436 2.814 5.738 5.738 0 0 1-.299 3.176 5.447 5.447 0 0 1-1.932 2.466 5.078 5.078 0 0 1-2.915.926 5.133 5.133 0 0 1-3.708-1.611 5.645 5.645 0 0 1-1.538-3.885Zm25.056 12.329a.918.918 0 0 1-.717.14.953.953 0 0 1-.603-.431 9.693 9.693 0 0 0-3.447-3.337 9.173 9.173 0 0 0-4.55-1.206.93.93 0 0 1-.674-.293 1.022 1.022 0 0 1-.28-.706c0-.265.101-.52.28-.707a.933.933 0 0 1 .674-.293c.773 0 1.536-.18 2.234-.525a5.3 5.3 0 0 0 1.808-1.473 5.593 5.593 0 0 0 1.037-2.139 5.753 5.753 0 0 0 .068-2.398 5.63 5.63 0 0 0-.913-2.199 5.331 5.331 0 0 0-1.721-1.583 5.044 5.044 0 0 0-4.461-.284.915.915 0 0 1-.742.007.957.957 0 0 1-.315-.221 1.015 1.015 0 0 1-.275-.722 1.029 1.029 0 0 1 .301-.71.948.948 0 0 1 .323-.208 6.85 6.85 0 0 1 5.128-.07c1.658.642 3.032 1.904 3.854 3.544a7.812 7.812 0 0 1 .601 5.335c-.436 1.795-1.491 3.358-2.962 4.386 2.312.893 4.287 2.545 5.63 4.71.138.222.187.492.135.752a1.006 1.006 0 0 1-.413.631Zm-611.266 8.414-4.694-4.693a8.256 8.256 0 0 0 1.894-5.849 8.256 8.256 0 0 0-8.428-7.696 8.261 8.261 0 0 0-5.913 13.828 8.256 8.256 0 0 0 5.538 2.671 8.256 8.256 0 0 0 5.849-1.894l4.693 4.694a.757.757 0 0 0 .531.22.746.746 0 0 0 .693-.463.746.746 0 0 0-.163-.818Zm-17.78-9.969a6.745 6.745 0 0 1 4.167-6.236 6.752 6.752 0 0 1 7.356 1.463 6.754 6.754 0 0 1-1.023 10.385 6.748 6.748 0 0 1-10.5-5.612Z"/></svg>