<svg xmlns="http://www.w3.org/2000/svg" width="2824" height="1157" fill="none"><path fill="#fff" d="M1156.76 554V360.066h-64.23v-21.207h154.28v21.207h-64.23V554h-25.82Zm160.93 3.688c-14.34 0-27.05-3.483-38.11-10.45-11.06-6.966-19.77-16.801-26.12-29.505-6.15-12.703-9.22-27.558-9.22-44.564 0-17.007 3.07-31.862 9.22-44.565 6.35-12.704 15.06-22.539 26.12-29.505 11.27-6.967 24.18-10.45 38.73-10.45 15.57 0 28.58 3.483 39.03 10.45 10.45 6.966 18.34 16.289 23.66 27.968 5.33 11.679 7.99 24.485 7.99 38.418v6.147c0 2.049-.1 4.508-.3 7.376H1263.6v-19.977h100.19c-.41-15.777-5.02-27.764-13.83-35.959-8.6-8.401-19.36-12.602-32.27-12.602-8.61 0-16.6 2.152-23.97 6.455-7.17 4.098-13.01 10.244-17.52 18.44-4.51 8.196-6.76 18.441-6.76 30.735v8.605c0 13.523 2.25 24.895 6.76 34.115 4.51 9.016 10.35 15.777 17.52 20.285 7.37 4.508 15.36 6.762 23.97 6.762 11.47 0 20.49-2.152 27.05-6.455 6.55-4.507 11.37-10.859 14.44-19.055h25.51c-2.46 9.016-6.76 17.109-12.91 24.28-5.94 7.172-13.52 12.806-22.74 16.904-9.02 4.098-19.47 6.147-31.35 6.147ZM1424.77 554V392.337h23.36l1.84 29.505c3.69-7.376 8.51-13.523 14.45-18.44 5.94-4.918 13.11-8.606 21.51-11.065 8.61-2.459 18.24-3.688 28.89-3.688v27.046h-15.98c-6.15 0-12.09.82-17.83 2.459a45.491 45.491 0 0 0-15.67 7.991c-4.51 3.688-8.09 8.708-10.76 15.06-2.66 6.352-3.99 14.343-3.99 23.973V554h-25.82Zm119.76 0V392.337h23.36l1.22 25.51c4.72-9.221 11.48-16.392 20.29-21.514 9.01-5.123 19.36-7.684 31.04-7.684 11.88 0 22.23 2.254 31.04 6.762 8.81 4.507 15.68 11.371 20.59 20.592 4.92 9.22 7.38 20.899 7.38 35.037V554h-25.82V453.806c0-14.343-3.58-25.1-10.75-32.271-6.97-7.172-16.39-10.757-28.28-10.757-7.99 0-15.37 1.946-22.13 5.839-6.76 3.688-12.19 9.221-16.29 16.597-3.89 7.376-5.84 16.392-5.84 27.046V554h-25.81Zm180.14 0V392.337h25.82V554h-25.82Zm12.91-192.397c-5.13 0-9.43-1.639-12.91-4.918-3.28-3.483-4.92-7.786-4.92-12.908 0-5.123 1.64-9.22 4.92-12.294 3.48-3.278 7.78-4.917 12.91-4.917 4.91 0 9.12 1.639 12.6 4.917 3.48 3.074 5.22 7.171 5.22 12.294 0 5.122-1.74 9.425-5.22 12.908-3.48 3.279-7.69 4.918-12.6 4.918Zm128.22 196.085c-14.95 0-28.17-3.483-39.64-10.45-11.48-6.966-20.39-16.801-26.74-29.505-6.35-12.703-9.53-27.558-9.53-44.564 0-17.212 3.18-32.067 9.53-44.565 6.55-12.704 15.57-22.539 27.04-29.505 11.68-6.967 25-10.45 39.96-10.45 15.16 0 28.38 3.483 39.65 10.45 11.47 6.966 20.38 16.801 26.74 29.505 6.35 12.498 9.52 27.353 9.52 44.565 0 17.006-3.28 31.861-9.83 44.564-6.35 12.704-15.27 22.539-26.74 29.505-11.47 6.967-24.79 10.45-39.96 10.45Zm0-22.129c9.43 0 17.93-2.253 25.51-6.761 7.59-4.713 13.53-11.679 17.83-20.9 4.51-9.425 6.76-21.001 6.76-34.729 0-13.933-2.15-25.51-6.45-34.73-4.31-9.221-10.25-16.085-17.83-20.592-7.37-4.713-15.78-7.069-25.2-7.069-9.22 0-17.62 2.356-25.2 7.069-7.58 4.507-13.63 11.371-18.14 20.592-4.5 9.22-6.76 20.797-6.76 34.73 0 13.728 2.15 25.304 6.46 34.729 4.5 9.221 10.45 16.187 17.82 20.9 7.58 4.508 15.98 6.761 25.2 6.761ZM1979.73 554V392.337h23.36l1.23 25.51c4.71-9.221 11.47-16.392 20.28-21.514 9.02-5.123 19.37-7.684 31.04-7.684 11.89 0 22.24 2.254 31.05 6.762 8.81 4.507 15.67 11.371 20.59 20.592 4.92 9.22 7.37 20.899 7.37 35.037V554h-25.81V453.806c0-14.343-3.59-25.1-10.76-32.271-6.97-7.172-16.39-10.757-28.28-10.757-7.99 0-15.36 1.946-22.12 5.839-6.77 3.688-12.2 9.221-16.29 16.597-3.9 7.376-5.84 16.392-5.84 27.046V554h-25.82Zm-821.06 352V690.859h25.81V906h-25.81Zm71.39 0V744.337h23.35l1.23 25.51c4.72-9.221 11.48-16.392 20.29-21.514 9.01-5.123 19.36-7.684 31.04-7.684 11.88 0 22.23 2.254 31.04 6.762 8.81 4.507 15.68 11.371 20.59 20.592 4.92 9.22 7.38 20.899 7.38 35.037V906h-25.82V805.806c0-14.343-3.58-25.1-10.75-32.271-6.97-7.172-16.4-10.757-28.28-10.757-7.99 0-15.37 1.946-22.13 5.839-6.76 3.688-12.19 9.221-16.29 16.597-3.89 7.376-5.84 16.392-5.84 27.046V906h-25.81Zm240.38 0c-9.22 0-17.21-1.434-23.98-4.303-6.76-2.868-11.98-7.683-15.67-14.445-3.48-6.966-5.23-16.289-5.23-27.968v-93.125h-28.27v-21.822h28.27l3.39-40.262h22.43v40.262h45.8v21.822h-45.8v93.125c0 9.63 1.95 16.187 5.84 19.67 3.89 3.278 10.76 4.917 20.59 4.917h18.75V906h-26.12Zm124.96 3.688c-14.35 0-27.05-3.483-38.11-10.45-11.07-6.966-19.78-16.801-26.13-29.505-6.15-12.703-9.22-27.558-9.22-44.564 0-17.007 3.07-31.862 9.22-44.565 6.35-12.704 15.06-22.539 26.13-29.505 11.26-6.967 24.17-10.45 38.72-10.45 15.57 0 28.58 3.483 39.03 10.45 10.45 6.966 18.34 16.289 23.67 27.968 5.33 11.679 7.99 24.485 7.99 38.418v6.147c0 2.049-.1 4.508-.31 7.376H1541.3v-19.977h100.2c-.41-15.777-5.02-27.764-13.83-35.959-8.61-8.401-19.37-12.602-32.27-12.602-8.61 0-16.6 2.152-23.98 6.455-7.17 4.098-13.01 10.244-17.52 18.44-4.5 8.196-6.76 18.441-6.76 30.735v8.605c0 13.523 2.26 24.895 6.76 34.115 4.51 9.016 10.35 15.777 17.52 20.285 7.38 4.508 15.37 6.762 23.98 6.762 11.47 0 20.49-2.152 27.04-6.455 6.56-4.507 11.37-10.859 14.45-19.055h25.51c-2.46 9.016-6.76 17.109-12.91 24.28-5.94 7.172-13.52 12.806-22.74 16.904-9.02 4.098-19.47 6.147-31.35 6.147ZM1702.48 906V684.712h25.81V906h-25.81Zm69.33 0V684.712h25.82V906h-25.82Zm71.79 0V744.337h25.82V906h-25.82Zm12.91-192.397c-5.12 0-9.43-1.639-12.91-4.918-3.28-3.483-4.92-7.786-4.92-12.908 0-5.123 1.64-9.22 4.92-12.294 3.48-3.278 7.79-4.917 12.91-4.917 4.92 0 9.12 1.639 12.6 4.917 3.48 3.074 5.22 7.171 5.22 12.294 0 5.122-1.74 9.425-5.22 12.908-3.48 3.279-7.68 4.918-12.6 4.918Zm122.08 263.701c-14.55 0-27.35-1.844-38.42-5.532-10.86-3.484-19.36-8.913-25.51-16.29-5.94-7.376-8.91-16.494-8.91-27.353 0-5.123.92-10.45 2.76-15.982 2.05-5.532 5.43-10.86 10.15-15.982 4.91-5.122 11.78-9.733 20.59-13.83l19.67 10.449c-11.68 4.508-19.26 9.733-22.74 15.675-3.49 5.942-5.23 11.679-5.23 17.211 0 6.762 1.95 12.396 5.84 16.904 4.1 4.508 9.73 7.888 16.9 10.142 7.18 2.254 15.47 3.381 24.9 3.381 9.22 0 17.11-1.229 23.66-3.688 6.77-2.254 11.89-5.635 15.37-10.142 3.69-4.303 5.53-9.426 5.53-15.368 0-8.605-2.76-15.367-8.29-20.284-5.54-4.713-16.29-7.479-32.28-8.299-12.49-.819-22.94-1.946-31.34-3.38-8.41-1.435-15.37-3.074-20.9-4.918-5.33-2.049-9.84-4.303-13.53-6.761-3.48-2.459-6.66-5.02-9.52-7.684v-7.069l30.42-29.198 24.28 7.991-33.19 27.354 3.99-11.679c2.26 1.639 4.41 3.176 6.46 4.61 2.05 1.434 4.81 2.766 8.3 3.995 3.69 1.025 8.71 2.049 15.06 3.074 6.55 1.024 15.16 1.946 25.81 2.766 14.76 1.025 26.54 3.483 35.35 7.376 8.81 3.893 15.16 9.323 19.05 16.289 3.9 6.762 5.84 15.06 5.84 24.895 0 8.606-2.46 16.802-7.37 24.588-4.72 7.786-12.3 14.138-22.75 19.055-10.24 5.123-23.56 7.684-39.95 7.684Zm-.31-121.708c-13.11 0-24.28-2.459-33.5-7.377-9.01-5.122-15.88-11.986-20.59-20.592-4.71-8.81-7.07-18.645-7.07-29.505 0-10.859 2.36-20.592 7.07-29.197 4.92-8.606 11.88-15.47 20.9-20.592 9.22-5.123 20.28-7.684 33.19-7.684 13.32 0 24.49 2.561 33.5 7.684 9.02 5.122 15.88 11.986 20.59 20.592 4.72 8.605 7.07 18.338 7.07 29.197 0 10.86-2.35 20.695-7.07 29.505-4.71 8.606-11.57 15.47-20.59 20.592-9.01 4.918-20.18 7.377-33.5 7.377Zm0-21.207c11.48 0 20.39-2.971 26.74-8.913 6.35-6.147 9.53-15.265 9.53-27.354 0-12.089-3.18-21.104-9.53-27.046s-15.26-8.913-26.74-8.913c-10.86 0-19.77 2.971-26.74 8.913-6.76 5.942-10.14 14.957-10.14 27.046 0 12.089 3.28 21.207 9.84 27.354 6.76 5.942 15.77 8.913 27.04 8.913Zm27.05-68.23-7.69-21.822h63.32V763.7l-55.63 2.459Zm147.73 143.529c-14.35 0-27.05-3.483-38.11-10.45-11.07-6.966-19.78-16.801-26.13-29.505-6.14-12.703-9.22-27.558-9.22-44.564 0-17.007 3.08-31.862 9.22-44.565 6.35-12.704 15.06-22.539 26.13-29.505 11.27-6.967 24.17-10.45 38.72-10.45 15.57 0 28.58 3.483 39.03 10.45 10.45 6.966 18.34 16.289 23.67 27.968 5.33 11.679 7.99 24.485 7.99 38.418v6.147c0 2.049-.1 4.508-.31 7.376h-125.09v-19.977h100.2c-.41-15.777-5.02-27.764-13.83-35.959-8.61-8.401-19.36-12.602-32.27-12.602-8.61 0-16.6 2.152-23.98 6.455-7.17 4.098-13.01 10.244-17.51 18.44-4.51 8.196-6.77 18.441-6.77 30.735v8.605c0 13.523 2.26 24.895 6.77 34.115 4.5 9.016 10.34 15.777 17.51 20.285 7.38 4.508 15.37 6.762 23.98 6.762 11.47 0 20.49-2.152 27.04-6.455 6.56-4.507 11.37-10.859 14.45-19.055h25.51c-2.46 9.016-6.76 17.109-12.91 24.28-5.94 7.172-13.52 12.806-22.74 16.904-9.02 4.098-19.47 6.147-31.35 6.147ZM2260.14 906V744.337h23.36l1.22 25.51c4.72-9.221 11.48-16.392 20.29-21.514 9.02-5.123 19.36-7.684 31.04-7.684 11.89 0 22.23 2.254 31.04 6.762 8.81 4.507 15.68 11.371 20.6 20.592 4.91 9.22 7.37 20.899 7.37 35.037V906h-25.82V805.806c0-14.343-3.58-25.1-10.75-32.271-6.97-7.172-16.39-10.757-28.28-10.757-7.99 0-15.37 1.946-22.13 5.839-6.76 3.688-12.19 9.221-16.29 16.597-3.89 7.376-5.84 16.392-5.84 27.046V906h-25.81Zm247.45 3.688c-14.75 0-27.87-3.483-39.34-10.45-11.48-7.171-20.49-17.108-27.05-29.812-6.56-12.703-9.83-27.456-9.83-44.257 0-17.007 3.27-31.759 9.83-44.258 6.56-12.703 15.57-22.538 27.05-29.505 11.47-7.171 24.59-10.757 39.34-10.757 18.44 0 33.81 4.918 46.1 14.753 12.5 9.835 20.49 23.05 23.97 39.647h-26.43c-2.25-10.245-7.48-18.133-15.67-23.666-8-5.737-17.42-8.605-28.28-8.605-9.42 0-17.93 2.356-25.51 7.069-7.38 4.712-13.22 11.679-17.52 20.899-4.3 9.22-6.45 20.695-6.45 34.423 0 10.244 1.23 19.362 3.69 27.353 2.45 7.786 5.84 14.343 10.14 19.67 4.51 5.123 9.73 9.016 15.67 11.679 6.15 2.664 12.81 3.996 19.98 3.996 7.38 0 14.04-1.23 19.98-3.688 6.14-2.664 11.27-6.455 15.36-11.372 4.31-4.918 7.18-10.757 8.61-17.519h26.43c-3.28 16.187-11.27 29.3-23.97 39.34-12.5 10.04-27.87 15.06-46.1 15.06Zm174.61 0c-14.34 0-27.04-3.483-38.11-10.45-11.06-6.966-19.77-16.801-26.12-29.505-6.15-12.703-9.22-27.558-9.22-44.564 0-17.007 3.07-31.862 9.22-44.565 6.35-12.704 15.06-22.539 26.12-29.505 11.27-6.967 24.18-10.45 38.73-10.45 15.57 0 28.58 3.483 39.03 10.45 10.45 6.966 18.34 16.289 23.67 27.968 5.32 11.679 7.99 24.485 7.99 38.418v6.147c0 2.049-.1 4.508-.31 7.376h-125.09v-19.977h100.2c-.41-15.777-5.02-27.764-13.83-35.959-8.61-8.401-19.37-12.602-32.28-12.602-8.6 0-16.59 2.152-23.97 6.455-7.17 4.098-13.01 10.244-17.52 18.44-4.5 8.196-6.76 18.441-6.76 30.735v8.605c0 13.523 2.26 24.895 6.76 34.115 4.51 9.016 10.35 15.777 17.52 20.285 7.38 4.508 15.37 6.762 23.97 6.762 11.48 0 20.49-2.152 27.05-6.455 6.56-4.507 11.37-10.859 14.45-19.055h25.51c-2.46 9.016-6.77 17.109-12.91 24.28-5.95 7.172-13.53 12.806-22.75 16.904-9.01 4.098-19.46 6.147-31.35 6.147ZM719.696 714.958c-1.645.083-3.591-.325-5.062-1.036-1.57-.759-3.145-2.11-4.161-3.488-1.131-1.535-1.981-3.624-2.316-5.478-.379-2.108-.248-4.633.264-6.714.584-2.373 1.84-4.972 3.279-6.978 1.632-2.278 4.03-4.556 6.37-6.162 2.638-1.809 6.055-3.371 9.158-4.262 3.465-.996 7.65-1.49 11.265-1.4 4.002.1 8.584.936 12.369 2.191 4.16 1.38 8.683 3.692 12.237 6.189 3.88 2.723 7.84 6.515 10.74 10.2 3.145 3.998 6.038 9.116 7.875 13.808 1.983 5.062 3.362 11.204 3.791 16.598.459 5.789-.024 12.517-1.251 18.202-1.313 6.076-3.871 12.849-6.868 18.343-3.192 5.848-7.861 12.063-12.591 16.851-5.02 5.079-11.649 10.123-17.912 13.698-6.624 3.782-14.873 7.09-22.312 9.006-7.845 2.022-17.198 3.124-25.319 3.037-8.544-.09-18.342-1.517-26.547-3.81-8.61-2.407-18.103-6.498-25.731-11.032-7.989-4.75-16.381-11.431-22.767-18.059-6.673-6.926-13.198-15.903-17.718-24.288-4.715-8.75-8.694-19.517-10.83-29.157-2.226-10.039-3.135-21.911-2.519-32.158.641-10.657 3.119-22.803 6.663-32.917 3.681-10.503 9.622-22.011 16.051-31.207 6.667-9.535 15.877-19.482 24.918-26.988 9.365-7.774 21.385-15.293 32.546-20.418 11.544-5.304 25.666-9.659 38.253-11.852 13.006-2.265 28.313-2.915 41.48-1.812 13.594 1.14 29.024 4.487 41.831 9.021 13.206 4.678 27.622 12.027 39.091 19.873 11.82 8.087 24.092 19.143 33.295 29.928 9.478 11.103 18.573 25.273 24.699 38.378 6.301 13.481 11.368 29.906 13.785 44.504 2.484 15.006 2.925 32.612 1.246 47.721-1.724 15.517-6.198 33.086-12.074 47.629-6.033 14.929-15.36 31.179-25.233 44.071-10.13 13.224-23.884 26.908-37.248 37.126-13.698 10.475-31.113 20.471-47.177 27.139-16.458 6.831-36.456 12.235-54.194 14.695-18.163 2.52-39.429 2.718-57.644.587-18.642-2.178-39.706-7.446-57.112-14.23-17.803-6.939-37.145-17.548-52.453-28.716-15.652-11.416-31.805-26.848-43.825-41.796-12.282-15.275-23.952-34.639-31.677-52.468-7.89-18.208-14.048-40.292-16.74-59.852-2.508-16.251-7.94-34.563-14.769-49.62-6.659-14.679-16.614-30.581-27.025-43.075-10.143-12.173-23.709-24.687-36.805-33.883-12.75-8.954-28.807-17.39-43.546-22.82-14.339-5.285-31.648-9.272-46.923-10.759-14.851-1.445-32.144-.945-46.87 1.405-14.304 2.281-30.383 6.987-43.566 12.798-12.794 5.64-26.613 13.985-37.423 22.659-10.481 8.411-21.207 19.603-29.028 30.367-7.577 10.428-14.646 23.518-19.111 35.495-4.321 11.591-7.464 25.544-8.467 37.82-.97 11.869-.216 25.652 2.094 37.347 2.231 11.292 6.573 23.945 11.816 34.272 5.056 9.958 12.437 20.666 20.044 28.986 7.326 8.012 17.011 16.151 26.276 22.015 8.91 5.637 20.043 10.813 30.184 13.979 9.74 3.038 21.415 5.104 31.643 5.546 9.802.425 21.139-.528 30.707-2.628 9.153-2.011 19.358-5.668 27.625-9.954 7.894-4.094 16.319-9.963 22.789-15.939 6.166-5.694 12.347-13.152 16.7-20.23 4.139-6.729 7.824-15.079 9.929-22.631 1.995-7.161 3.144-15.693 3.055-23.107-.084-7.01-1.307-15.059-3.367-21.784-1.94-6.337-5.195-13.339-8.86-18.924-3.443-5.247-8.256-10.766-13.065-14.897-4.5-3.866-10.31-7.633-15.748-10.145-5.065-2.34-11.279-4.261-16.823-5.138-5.14-.814-11.191-.961-16.359-.337-4.764.575-10.155 1.98-14.544 3.854-4.023 1.716-8.365 4.33-11.686 7.109-3.021 2.529-6.064 5.931-8.155 9.219-1.888 2.969-3.537 6.707-4.372 10.093-.75 3.033-1.056 6.664-.746 9.766.274 2.754 1.125 5.892 2.356 8.393 1.086 2.203 2.796 4.55 4.639 6.223 1.616 1.467 3.821 2.839 5.906 3.576 1.836.649 4.139.984 6.086.808 1.748-.158 3.75-.795 5.218-1.724 1.376-.872 2.714-2.291 3.463-3.703.746-1.413 2.086-2.832 3.462-3.703 1.467-.929 3.469-1.567 5.219-1.725 1.946-.176 4.248.161 6.084.809 2.085.736 4.292 2.109 5.907 3.576 1.843 1.672 3.553 4.019 4.639 6.223 1.232 2.5 2.081 5.638 2.356 8.393.309 3.103.003 6.734-.745 9.765-.837 3.388-2.486 7.125-4.374 10.093-2.089 3.288-5.134 6.69-8.155 9.22-3.321 2.778-7.663 5.392-11.685 7.108-4.39 1.874-9.78 3.279-14.545 3.855-5.167.623-11.219.476-16.358-.337-5.545-.878-11.758-2.799-16.824-5.138-5.438-2.513-11.247-6.28-15.747-10.146-4.81-4.131-9.622-9.65-13.065-14.897-3.666-5.585-6.921-12.586-8.861-18.924-2.06-6.724-3.283-14.774-3.367-21.784-.089-7.414 1.06-15.946 3.056-23.107 2.105-7.552 5.789-15.902 9.928-22.63 4.354-7.079 10.536-14.535 16.701-20.23 6.469-5.977 14.894-11.846 22.789-15.94 8.266-4.286 18.472-7.943 27.626-9.954 9.566-2.1 20.903-3.053 30.707-2.628 10.227.442 21.901 2.508 31.641 5.548 10.142 3.164 21.274 8.34 30.184 13.979 9.265 5.862 18.951 14.001 26.277 22.013 7.607 8.32 14.987 19.028 20.044 28.987 5.243 10.326 9.585 22.979 11.816 34.272 2.309 11.694 3.064 25.477 2.094 37.346-1.003 12.278-4.146 26.229-8.467 37.82-4.465 11.979-11.534 25.067-19.111 35.495-7.822 10.765-18.547 21.957-29.029 30.367-10.81 8.674-24.628 17.019-37.422 22.659-13.182 5.812-29.263 10.517-43.567 12.798-14.725 2.35-32.019 2.85-46.87 1.405-15.275-1.487-32.583-5.473-46.923-10.757-14.738-5.432-30.795-13.868-43.545-22.822-13.096-9.196-26.662-21.71-36.805-33.883-10.412-12.494-20.365-28.395-27.025-43.075-6.83-15.057-12.26-33.369-14.77-49.62-2.572-16.659-2.856-36.179-.822-52.907 2.084-17.138 7.223-36.514 13.88-52.535 6.815-16.403 17.27-34.235 28.293-48.358 11.281-14.454 26.551-29.384 41.356-40.505 15.143-11.376 34.357-22.198 52.056-29.38 18.094-7.342 40.051-13.095 59.507-15.643 19.881-2.603 43.134-2.651 63.031-.178 20.325 2.525 43.266 8.433 62.206 15.968 15.873 6.033 35.058 10.66 52.017 12.494 16.534 1.787 35.812 1.438 52.258-.996 16.02-2.372 34.06-7.425 48.879-13.746 14.429-6.155 30.046-15.327 42.299-24.899 11.923-9.315 24.164-21.754 33.139-33.747 8.725-11.661 16.922-26.33 22.172-39.783 5.098-13.068 8.907-28.828 10.271-42.726 1.323-13.488.727-29.182-1.67-42.533-2.324-12.944-7.029-27.483-12.801-39.387-5.59-11.533-13.83-23.971-22.371-33.683-8.266-9.398-19.244-18.995-29.786-25.97-10.189-6.742-22.964-13.006-34.638-16.927-11.272-3.786-24.825-6.492-36.735-7.284-11.486-.762-24.807.038-36.094 2.221-10.87 2.102-23.034 6.107-32.94 10.902-9.526 4.61-19.749 11.304-27.666 18.179-7.603 6.601-15.3 15.303-20.811 23.609-5.282 7.962-10.095 17.89-12.989 26.918-2.768 8.638-4.583 18.976-4.86 28.012-.263 8.628.803 18.588 2.944 26.971 2.038 7.988 5.656 16.871 9.845 24.041 3.983 6.814 9.65 14.062 15.392 19.593 5.443 5.245 12.543 10.469 19.256 14.102 6.348 3.434 14.201 6.44 21.278 8.085 6.671 1.55 14.595 2.337 21.453 2.073 6.44-.248 13.81-1.5 19.932-3.446 5.727-1.819 12.02-4.779 16.999-8.056 4.637-3.054 9.471-7.277 13.033-11.46 3.302-3.878 6.459-8.85 8.481-13.471 1.865-4.26 3.297-9.457 3.807-14.055.467-4.212.287-9.139-.552-13.297-.765-3.784-2.304-8.023-4.214-11.411-1.727-3.058-4.265-6.301-6.892-8.691-2.354-2.141-5.467-4.212-8.412-5.505-2.615-1.149-5.863-2.01-8.728-2.231-2.523-.197-5.49.055-7.916.755-2.127.613-4.465 1.767-6.171 3.137-1.501 1.206-2.954 2.958-3.768 4.67-.734 1.537-1.161 3.526-1.059 5.213.097 1.583.702 3.409 1.599 4.738.897 1.331 1.504 3.156 1.6 4.74.101 1.688-.326 3.676-1.058 5.213-.814 1.71-2.269 3.463-3.77 4.669-1.704 1.371-4.042 2.524-6.17 3.138-2.425.699-5.392.953-7.916.755-2.865-.223-6.112-1.082-8.727-2.232-2.947-1.293-6.06-3.363-8.412-5.504-2.629-2.39-5.165-5.634-6.892-8.691-1.912-3.388-3.451-7.628-4.214-11.411-.84-4.159-1.02-9.086-.553-13.298.511-4.597 1.942-9.794 3.806-14.054 2.024-4.621 5.181-9.594 8.482-13.472 3.563-4.183 8.397-8.404 13.034-11.459 4.977-3.279 11.272-6.238 16.999-8.058 6.122-1.944 13.491-3.197 19.932-3.444 6.858-.264 14.782.522 21.453 2.073 7.077 1.645 14.93 4.65 21.277 8.086 6.714 3.632 13.812 8.856 19.256 14.101 5.741 5.531 11.409 12.778 15.392 19.593 4.19 7.169 7.806 16.053 9.846 24.04 2.141 8.383 3.207 18.343 2.942 26.972-.277 9.036-2.09 19.373-4.859 28.011-2.893 9.028-7.707 18.957-12.99 26.918-5.51 8.307-13.206 17.009-20.809 23.61-7.918 6.874-18.141 13.568-27.668 18.179-9.905 4.794-22.068 8.8-32.938 10.902-11.287 2.183-24.61 2.983-36.094 2.221-11.91-.791-25.463-3.498-36.735-7.284-11.676-3.922-24.449-10.185-34.64-16.928-10.542-6.974-21.519-16.571-29.786-25.97-8.541-9.712-16.779-22.151-22.371-33.682-5.77-11.904-10.475-26.443-12.8-39.389-2.397-13.35-2.993-29.044-1.669-42.532 1.364-13.897 5.171-29.658 10.27-42.726 5.25-13.453 13.446-28.123 22.173-39.783 8.974-11.993 21.214-24.431 33.137-33.745 12.255-9.575 27.87-18.745 42.3-24.899 14.82-6.322 32.86-11.377 48.88-13.748 16.444-2.434 35.724-2.783 52.258-.996 16.958 1.834 36.143 6.461 52.016 12.495 16.271 6.186 33.97 15.708 48 25.768 14.374 10.306 29.233 24.28 40.314 37.84 11.348 13.885 22.159 31.518 29.351 47.772 7.361 16.632 13.154 36.83 15.755 54.735 2.661 18.315 2.789 39.747.399 58.095-2.443 18.757-8.247 39.942-15.683 57.44-7.598 17.877-19.182 37.29-31.354 52.646-12.435 15.683-29.22 31.858-45.466 43.884-13.364 10.218-27.12 23.902-37.248 37.126-9.873 12.891-19.2 29.142-25.233 44.069-5.877 14.545-10.35 32.114-12.074 47.631-1.679 15.109-1.239 32.715 1.245 47.721 2.418 14.597 7.486 31.023 13.786 44.504 6.125 13.104 15.221 27.275 24.697 38.378 9.205 10.785 21.477 21.841 33.295 29.926 11.471 7.848 25.887 15.197 39.093 19.875 12.807 4.534 28.237 7.881 41.829 9.021 13.169 1.103 28.476.453 41.482-1.812 12.587-2.193 26.709-6.549 38.253-11.852 11.16-5.125 23.18-12.644 32.544-20.418 9.043-7.506 18.254-17.453 24.92-26.988 6.429-9.196 12.37-20.704 16.051-31.207 3.544-10.114 6.022-22.26 6.662-32.917.617-10.248-.294-22.119-2.517-32.158-2.137-9.64-6.116-20.407-10.831-29.156-4.522-8.386-11.045-17.363-17.719-24.289-6.385-6.628-14.777-13.31-22.766-18.059-7.63-4.534-17.121-8.626-25.731-11.032-8.205-2.293-18.005-3.72-26.547-3.81-8.121-.087-17.474 1.015-25.319 3.037-7.44 1.916-15.688 5.224-22.312 9.006-6.263 3.575-12.894 8.619-17.912 13.699-4.73 4.787-9.4 11-12.592 16.851-2.998 5.493-5.556 12.266-6.867 18.342-1.227 5.685-1.712 12.413-1.251 18.202.429 5.394 1.808 11.536 3.789 16.598 1.839 4.692 4.732 9.81 7.878 13.808 2.899 3.685 6.857 7.477 10.739 10.201 3.554 2.496 8.077 4.808 12.237 6.188 3.785 1.255 8.368 2.091 12.369 2.191 3.615.089 7.8-.405 11.265-1.4 3.103-.891 6.52-2.452 9.156-4.262 2.342-1.607 4.738-3.884 6.372-6.162 1.439-2.006 2.695-4.606 3.279-6.978.512-2.081.643-4.606.263-6.714-.335-1.854-1.184-3.943-2.315-5.478-1.018-1.378-2.593-2.729-4.161-3.488-1.473-.711-3.416-1.119-5.062-1.036Z"/></svg>